{"glyphs":{"0":{"ha":400,"x_min":38,"x_max":363,"o":"m 199 -4 q 79 43 121 -4 q 38 167 38 90 l 38 757 q 79 881 38 833 q 199 929 121 929 q 319 882 276 929 q 363 757 363 835 l 363 167 q 319 44 363 92 q 199 -4 276 -4 m 178 176 q 181 140 178 151 q 199 129 185 129 q 217 140 213 129 q 221 176 221 151 l 221 276 l 178 276 l 178 176 m 221 439 l 221 750 q 217 784 221 774 q 199 794 213 794 q 181 784 185 794 q 178 750 178 774 l 178 439 l 221 439 z "},"1":{"ha":319,"x_min":38,"x_max":283,"o":"m 143 733 l 89 708 l 38 833 l 143 883 l 143 917 l 283 917 l 283 0 l 143 0 l 143 733 z "},"2":{"ha":400,"x_min":38,"x_max":363,"o":"m 43 264 q 190 481 43 403 q 222 538 222 497 l 222 750 q 218 784 222 774 q 200 794 214 794 q 182 784 186 794 q 178 750 178 774 l 178 633 l 38 633 l 38 757 q 80 882 38 835 q 200 929 122 929 q 320 881 278 929 q 363 757 363 833 l 363 538 q 331 432 363 475 q 253 365 299 389 q 200 327 218 347 q 182 274 182 307 l 182 140 l 353 140 l 353 0 l 43 0 l 43 264 z "},"3":{"ha":406,"x_min":38,"x_max":368,"o":"m 207 -12 q 87 35 129 -12 q 44 160 44 82 l 44 283 l 185 283 l 185 171 q 189 135 185 147 q 207 122 193 122 q 225 135 221 122 q 229 171 229 147 l 229 364 q 217 400 229 392 q 168 410 206 408 l 168 536 q 210 543 197 536 q 222 575 222 550 l 222 750 q 218 784 222 774 q 200 794 214 794 q 182 784 186 794 q 178 750 178 774 l 178 633 l 38 633 l 38 757 q 80 882 38 835 q 200 929 122 929 q 320 881 278 929 q 363 757 363 833 l 363 550 q 347 479 363 513 q 368 410 368 450 l 368 160 q 326 35 368 82 q 207 -12 285 -12 z "},"4":{"ha":467,"x_min":38,"x_max":429,"o":"m 213 306 l 38 306 l 38 917 l 178 917 l 178 446 l 213 446 l 213 575 l 351 575 l 351 446 l 429 446 l 429 306 l 351 306 l 351 18 l 213 18 l 213 306 z "},"5":{"ha":400,"x_min":38,"x_max":363,"o":"m 200 0 q 81 48 124 0 q 38 172 38 96 l 38 288 l 178 288 l 178 179 q 182 146 178 156 q 200 136 186 136 q 218 146 214 136 q 222 179 222 156 l 222 422 q 213 458 222 447 q 176 469 204 469 q 77 506 114 469 q 40 607 40 543 l 40 917 l 350 917 l 350 776 l 179 776 l 179 625 q 188 599 179 607 q 224 590 197 590 q 322 541 281 590 q 363 422 363 492 l 363 172 q 320 48 363 96 q 200 0 278 0 z "},"6":{"ha":400,"x_min":38,"x_max":363,"o":"m 199 -12 q 79 35 121 -12 q 38 158 38 82 l 38 757 q 79 881 38 833 q 199 929 121 929 q 319 882 276 929 q 363 757 363 835 l 363 633 l 221 633 l 221 751 q 217 785 221 775 q 199 794 213 794 q 181 785 185 794 q 178 751 178 775 l 178 608 q 199 611 189 611 q 319 563 276 611 q 363 439 363 515 l 363 158 q 319 35 363 82 q 199 -12 276 -12 m 178 167 q 181 131 178 142 q 199 119 185 119 q 217 131 213 119 q 221 167 221 142 l 221 432 q 217 465 221 456 q 199 475 213 475 q 181 465 185 475 q 178 432 178 456 l 178 167 z "},"7":{"ha":507,"x_min":38,"x_max":469,"o":"m 299 776 l 38 776 l 38 917 l 469 917 l 275 0 l 133 0 l 299 776 z "},"8":{"ha":400,"x_min":38,"x_max":363,"o":"m 199 -12 q 79 35 121 -12 q 38 158 38 82 l 38 347 q 65 451 38 408 q 38 556 38 496 l 38 757 q 79 881 38 833 q 199 929 121 929 q 319 882 276 929 q 363 757 363 835 l 363 556 q 333 451 363 496 q 363 347 363 410 l 363 158 q 319 35 363 82 q 199 -12 276 -12 m 178 165 q 181 130 178 140 q 199 119 185 119 q 217 130 213 119 q 221 165 221 140 l 221 340 q 217 374 221 364 q 199 383 213 383 q 181 374 185 383 q 178 340 178 364 l 178 165 m 178 563 q 181 529 178 539 q 199 519 185 519 q 217 528 214 519 q 221 563 221 538 l 221 751 q 217 785 221 775 q 199 794 213 794 q 181 785 185 794 q 178 751 178 775 l 178 563 z "},"9":{"ha":400,"x_min":38,"x_max":363,"o":"m 201 928 q 321 881 279 928 q 363 757 363 833 l 363 158 q 321 34 363 82 q 201 -14 279 -14 q 81 33 124 -14 q 38 158 38 81 l 38 282 l 179 282 l 179 164 q 183 131 179 140 q 201 121 188 121 q 219 131 215 121 q 222 164 222 140 l 222 307 q 201 304 211 304 q 81 352 124 304 q 38 476 38 400 l 38 757 q 81 881 38 833 q 201 928 124 928 m 179 483 q 183 450 179 460 q 201 440 188 440 q 219 450 215 440 q 222 483 222 460 l 222 749 q 219 785 222 774 q 201 796 215 796 q 183 785 188 796 q 179 749 179 774 l 179 483 z "}," ":{"ha":208,"x_min":0,"x_max":0,"o":""}," ":{"ha":208,"x_min":0,"x_max":0,"o":""},"A":{"ha":475,"x_min":38,"x_max":439,"o":"m 174 917 l 304 917 l 439 0 l 300 0 l 286 97 l 189 97 l 175 0 l 38 0 l 174 917 m 268 226 l 239 426 l 208 226 l 268 226 z "},"B":{"ha":397,"x_min":38,"x_max":360,"o":"m 38 917 l 172 917 q 298 874 247 917 q 349 768 349 832 l 349 557 q 342 517 349 532 q 315 490 335 503 q 360 397 360 461 l 360 160 q 316 39 360 78 q 172 0 272 0 l 38 0 l 38 917 m 178 132 q 213 137 207 132 q 219 161 219 142 l 219 385 q 210 405 219 400 q 178 410 201 410 l 178 132 m 178 536 q 208 540 200 536 q 215 558 215 543 l 215 781 q 208 798 215 794 q 178 801 201 801 l 178 536 z "},"C":{"ha":400,"x_min":38,"x_max":363,"o":"m 199 -12 q 79 35 121 -12 q 38 158 38 82 l 38 757 q 79 881 38 833 q 199 929 121 929 q 319 882 276 929 q 363 757 363 835 l 363 594 l 221 594 l 221 756 q 217 785 221 775 q 199 794 213 794 q 182 785 186 794 q 178 756 178 775 l 178 161 q 181 130 178 140 q 199 119 185 119 q 217 130 213 119 q 221 161 221 140 l 221 317 l 363 317 l 363 158 q 319 35 363 82 q 199 -12 276 -12 z "},"D":{"ha":397,"x_min":38,"x_max":360,"o":"m 38 917 l 172 917 q 316 874 272 917 q 360 750 360 832 l 360 165 q 316 42 360 83 q 172 0 272 0 l 38 0 l 38 917 m 178 132 q 213 140 206 133 q 219 165 219 147 l 219 750 q 213 776 219 769 q 178 785 206 783 l 178 132 z "},"E":{"ha":356,"x_min":38,"x_max":318,"o":"m 38 917 l 318 917 l 318 785 l 178 785 l 178 540 l 296 540 l 296 410 l 178 410 l 178 131 l 318 131 l 318 0 l 38 0 l 38 917 z "},"F":{"ha":356,"x_min":38,"x_max":318,"o":"m 38 917 l 318 917 l 318 785 l 178 785 l 178 540 l 296 540 l 296 410 l 178 410 l 178 0 l 38 0 l 38 917 z "},"G":{"ha":400,"x_min":38,"x_max":363,"o":"m 199 -12 q 79 35 121 -12 q 38 158 38 82 l 38 757 q 79 881 38 833 q 199 929 121 929 q 319 881 276 929 q 363 756 363 833 l 363 594 l 221 594 l 221 750 q 217 784 221 774 q 199 794 213 794 q 181 784 185 794 q 178 750 178 774 l 178 163 q 181 129 178 139 q 199 119 185 119 q 217 129 213 119 q 221 163 221 139 l 221 410 l 199 410 l 199 540 l 363 540 l 363 157 q 319 34 363 81 q 199 -12 276 -12 z "},"H":{"ha":432,"x_min":38,"x_max":396,"o":"m 38 917 l 178 917 l 178 540 l 253 540 l 253 917 l 396 917 l 396 0 l 253 0 l 253 410 l 178 410 l 178 0 l 38 0 l 38 917 z "},"I":{"ha":215,"x_min":38,"x_max":178,"o":"m 38 917 l 178 917 l 178 0 l 38 0 l 38 917 z "},"J":{"ha":403,"x_min":38,"x_max":365,"o":"m 201 -12 q 80 36 122 -12 q 38 161 38 85 l 38 317 l 178 317 l 178 168 q 183 132 178 143 q 201 121 188 121 q 220 132 215 121 q 225 168 225 143 l 225 785 l 143 785 l 143 917 l 365 917 l 365 163 q 322 37 365 86 q 201 -12 279 -12 z "},"K":{"ha":468,"x_min":38,"x_max":431,"o":"m 38 917 l 179 917 l 176 549 l 269 917 l 413 917 l 236 340 l 431 0 l 283 0 l 178 203 l 178 0 l 38 0 l 38 917 z "},"L":{"ha":356,"x_min":38,"x_max":318,"o":"m 38 917 l 178 917 l 178 131 l 318 131 l 318 0 l 38 0 l 38 917 z "},"M":{"ha":582,"x_min":38,"x_max":544,"o":"m 38 917 l 164 917 l 290 778 l 417 917 l 544 917 l 544 0 l 404 0 l 404 701 l 333 619 l 251 619 l 178 700 l 178 0 l 38 0 l 38 917 z "},"N":{"ha":438,"x_min":38,"x_max":400,"o":"m 38 917 l 178 917 l 178 736 l 260 542 l 260 917 l 400 917 l 400 0 l 260 0 l 260 249 l 178 438 l 178 0 l 38 0 l 38 917 z "},"O":{"ha":400,"x_min":38,"x_max":363,"o":"m 199 -4 q 79 43 121 -4 q 38 167 38 90 l 38 744 q 79 869 38 821 q 199 917 121 917 q 319 869 276 917 q 363 744 363 821 l 363 167 q 319 44 363 92 q 199 -4 276 -4 m 178 175 q 181 140 178 150 q 199 129 185 129 q 217 140 213 129 q 221 175 221 150 l 221 739 q 217 771 221 761 q 199 781 213 781 q 181 771 185 781 q 178 739 178 761 l 178 175 z "},"P":{"ha":385,"x_min":38,"x_max":349,"o":"m 38 917 l 174 917 q 304 879 260 917 q 349 758 349 842 l 349 556 q 328 485 349 519 q 267 431 307 451 q 174 410 228 410 l 178 410 l 178 0 l 38 0 l 38 917 m 178 536 q 209 540 203 536 q 215 558 215 543 l 215 778 q 209 798 215 794 q 178 801 203 801 l 178 536 z "},"Q":{"ha":406,"x_min":38,"x_max":368,"o":"m 226 -43 q 222 -12 226 -21 q 204 -4 218 -4 q 80 43 122 -4 q 38 167 38 90 l 38 744 q 79 869 38 821 q 199 917 121 917 q 319 869 276 917 q 363 744 363 821 l 363 167 q 336 67 363 107 q 368 -42 368 22 l 368 -112 l 226 -112 l 226 -43 m 178 169 q 181 138 178 146 q 199 129 185 129 q 217 138 213 129 q 221 169 221 146 l 221 743 q 217 773 221 765 q 199 781 214 781 q 181 773 185 781 q 178 743 178 765 l 178 169 z "},"R":{"ha":385,"x_min":38,"x_max":349,"o":"m 38 917 l 174 917 q 303 875 258 917 q 349 768 349 833 l 349 560 q 322 474 349 508 q 349 374 349 443 l 349 0 l 215 0 l 215 374 q 209 402 215 394 q 190 410 203 410 l 178 410 l 178 0 l 38 0 l 38 917 m 178 536 q 209 540 203 536 q 215 560 215 543 l 215 781 q 208 798 215 794 q 178 801 201 801 l 178 536 z "},"S":{"ha":401,"x_min":38,"x_max":364,"o":"m 200 -12 q 80 35 122 -12 q 38 158 38 82 l 38 317 l 178 317 l 178 161 q 182 128 178 138 q 200 119 186 119 q 218 128 214 119 q 222 161 222 138 l 222 354 q 216 387 222 376 q 189 406 210 397 q 77 478 115 438 q 39 590 39 519 l 39 756 q 81 881 39 832 q 200 929 122 929 q 321 881 278 929 q 364 756 364 833 l 364 594 l 222 594 l 222 756 q 218 786 222 778 q 200 794 214 794 q 182 786 186 794 q 178 756 178 778 l 178 590 q 185 561 178 571 q 208 546 192 551 q 320 472 278 519 q 363 354 363 425 l 363 158 q 320 35 363 82 q 200 -12 278 -12 z "},"T":{"ha":381,"x_min":38,"x_max":344,"o":"m 121 788 l 38 788 l 38 917 l 344 917 l 344 788 l 261 788 l 261 0 l 121 0 l 121 788 z "},"U":{"ha":403,"x_min":38,"x_max":365,"o":"m 200 -12 q 81 40 124 -12 q 38 171 38 93 l 38 917 l 178 917 l 178 171 q 182 133 178 144 q 200 121 186 121 q 219 133 214 121 q 224 171 224 144 l 224 917 l 365 917 l 365 171 q 321 41 365 94 q 200 -12 276 -12 z "},"V":{"ha":450,"x_min":38,"x_max":413,"o":"m 38 917 l 179 917 l 224 417 l 271 917 l 413 917 l 290 0 l 160 0 l 38 917 z "},"W":{"ha":621,"x_min":38,"x_max":583,"o":"m 38 917 l 175 917 l 229 507 l 261 644 l 360 644 l 393 506 l 446 917 l 583 917 l 465 0 l 335 0 l 310 325 l 285 0 l 154 0 l 38 917 z "},"X":{"ha":468,"x_min":38,"x_max":432,"o":"m 161 451 l 38 917 l 181 917 l 233 703 l 288 917 l 432 917 l 308 451 l 422 0 l 278 0 l 233 192 l 190 0 l 47 0 l 161 451 z "},"Y":{"ha":440,"x_min":38,"x_max":403,"o":"m 150 432 l 38 917 l 181 917 l 219 729 l 260 917 l 403 917 l 290 432 l 290 0 l 150 0 l 150 432 z "},"Z":{"ha":369,"x_min":38,"x_max":332,"o":"m 38 110 l 189 785 l 38 785 l 38 917 l 332 917 l 332 807 l 182 132 l 332 132 l 332 0 l 38 0 l 38 110 z "},"a":{"ha":400,"x_min":38,"x_max":363,"o":"m 199 -14 q 79 33 121 -14 q 38 157 38 81 l 38 322 q 79 447 38 399 q 199 494 121 494 l 221 494 l 221 542 q 217 573 221 564 q 199 582 213 582 q 181 573 185 582 q 178 542 178 564 l 178 514 l 38 514 l 38 546 q 79 670 38 622 q 199 718 121 718 q 319 670 276 718 q 363 546 363 622 l 363 157 q 319 34 363 82 q 199 -14 276 -14 m 178 160 q 182 128 178 138 q 199 119 186 119 q 217 128 213 119 q 221 160 221 138 l 221 358 l 199 358 q 181 351 185 358 q 178 321 178 343 l 178 160 z "},"b":{"ha":400,"x_min":38,"x_max":363,"o":"m 199 -14 q 79 33 121 -14 q 38 157 38 81 l 38 917 l 178 917 l 178 715 q 199 718 192 718 q 319 670 276 718 q 363 546 363 622 l 363 157 q 319 34 363 82 q 199 -14 276 -14 m 178 160 q 181 129 178 139 q 199 119 185 119 q 217 129 213 119 q 221 160 221 139 l 221 544 q 217 572 221 563 q 199 582 213 582 q 178 544 178 582 l 178 160 z "},"c":{"ha":400,"x_min":38,"x_max":363,"o":"m 199 -12 q 79 35 121 -12 q 38 158 38 82 l 38 546 q 79 670 38 622 q 199 718 121 718 q 319 670 276 718 q 363 546 363 622 l 363 425 l 221 425 l 221 540 q 217 572 221 563 q 199 582 213 582 q 181 572 185 582 q 178 540 178 563 l 178 165 q 181 130 178 140 q 199 119 185 119 q 217 130 213 119 q 221 165 221 140 l 221 275 l 363 275 l 363 158 q 319 35 363 82 q 199 -12 276 -12 z "},"d":{"ha":400,"x_min":38,"x_max":363,"o":"m 200 -14 q 81 34 124 -14 q 38 157 38 82 l 38 546 q 81 670 38 622 q 200 718 124 718 q 221 715 210 718 l 221 917 l 363 917 l 363 157 q 320 33 363 81 q 200 -14 278 -14 m 178 160 q 182 130 178 140 q 200 119 186 119 q 218 130 214 119 q 222 160 222 140 l 221 553 q 200 582 221 582 q 182 572 186 582 q 178 544 178 563 l 178 160 z "},"e":{"ha":400,"x_min":38,"x_max":363,"o":"m 199 -12 q 79 35 121 -12 q 38 158 38 82 l 38 546 q 79 670 38 622 q 199 718 121 718 q 319 670 276 718 q 363 546 363 622 l 363 450 q 319 330 363 376 q 199 283 276 283 l 178 283 l 178 161 q 181 128 178 138 q 199 119 185 119 q 217 128 214 119 q 221 161 221 138 l 221 239 l 363 239 l 363 158 q 319 35 363 82 q 199 -12 276 -12 m 199 419 q 217 427 214 419 q 221 457 221 435 l 221 544 q 217 573 221 564 q 199 582 213 582 q 181 573 185 582 q 178 544 178 564 l 178 419 l 199 419 z "},"f":{"ha":297,"x_min":38,"x_max":260,"o":"m 38 749 q 78 872 38 824 q 192 921 118 921 l 260 921 l 260 779 l 204 779 q 183 772 189 779 q 178 746 178 764 l 178 708 l 233 708 l 233 578 l 178 578 l 176 0 l 38 0 l 38 749 z "},"g":{"ha":421,"x_min":38,"x_max":393,"o":"m 142 -182 l 192 -182 q 222 -147 222 -182 l 222 -11 q 199 -12 215 -12 q 79 35 121 -12 q 38 158 38 82 l 38 547 q 79 672 38 624 q 199 719 121 719 q 293 693 254 719 q 393 704 336 708 l 393 575 q 361 574 374 575 q 363 547 363 564 l 361 -153 q 322 -282 361 -237 q 208 -326 283 -326 l 142 -326 l 142 -182 m 178 161 q 181 129 178 139 q 199 119 185 119 q 217 129 213 119 q 221 161 221 139 l 221 544 q 217 574 221 565 q 199 582 213 582 q 181 574 185 582 q 178 544 178 565 l 178 161 z "},"h":{"ha":400,"x_min":38,"x_max":363,"o":"m 38 0 l 38 917 l 178 917 l 178 715 q 199 718 189 718 q 319 670 276 718 q 363 546 363 622 l 363 0 l 221 0 l 221 540 q 217 572 221 563 q 199 582 213 582 q 181 572 185 582 q 178 540 178 563 l 178 0 l 38 0 z "},"i":{"ha":231,"x_min":38,"x_max":194,"o":"m 47 704 l 186 704 l 186 0 l 47 0 l 47 704 m 38 839 q 60 894 38 871 q 117 917 83 917 q 172 894 149 917 q 194 839 194 871 q 172 783 194 807 q 117 760 149 760 q 60 783 83 760 q 38 839 38 807 z "},"j":{"ha":407,"x_min":38,"x_max":369,"o":"m 199 -326 q 79 -278 121 -326 q 38 -154 38 -231 l 38 -64 l 178 -62 l 178 -150 q 182 -181 178 -171 q 199 -192 186 -192 q 217 -181 213 -192 q 221 -149 221 -171 l 221 704 l 363 704 l 363 -154 q 319 -278 363 -231 q 199 -326 276 -326 m 213 839 q 236 894 213 871 q 292 917 260 917 q 347 894 324 917 q 369 839 369 871 q 347 783 369 807 q 292 760 324 760 q 236 783 260 760 q 213 839 213 807 z "},"k":{"ha":497,"x_min":38,"x_max":460,"o":"m 38 917 l 178 917 l 178 546 l 267 704 l 415 704 l 218 343 l 460 0 l 307 0 l 178 172 l 178 0 l 38 0 l 38 917 z "},"l":{"ha":215,"x_min":38,"x_max":178,"o":"m 38 917 l 178 917 l 178 0 l 38 0 l 38 917 z "},"m":{"ha":583,"x_min":38,"x_max":546,"o":"m 38 546 q 79 670 38 622 q 199 718 121 718 q 290 693 256 718 q 382 718 328 718 q 503 670 460 718 q 546 546 546 622 l 546 0 l 404 0 l 404 542 q 400 573 404 564 q 383 582 396 582 q 367 573 372 582 q 363 542 363 564 l 363 0 l 221 0 l 221 542 q 217 573 221 564 q 200 582 214 582 q 183 573 186 582 q 179 542 179 564 l 178 0 l 38 0 l 38 546 z "},"n":{"ha":400,"x_min":38,"x_max":363,"o":"m 38 546 q 79 670 38 622 q 199 718 121 718 q 319 670 276 718 q 363 546 363 622 l 363 0 l 221 0 l 221 539 q 217 572 221 563 q 199 582 213 582 q 181 572 185 582 q 178 539 178 563 l 178 0 l 38 0 l 38 546 z "},"o":{"ha":400,"x_min":38,"x_max":363,"o":"m 199 -14 q 79 33 121 -14 q 38 157 38 81 l 38 546 q 79 670 38 622 q 199 718 121 718 q 319 670 276 718 q 363 546 363 622 l 363 157 q 319 34 363 82 q 199 -14 276 -14 m 178 164 q 181 129 178 139 q 199 119 185 119 q 217 129 213 119 q 221 164 221 139 l 221 540 q 217 572 221 563 q 199 582 213 582 q 181 572 185 582 q 178 540 178 563 l 178 164 z "},"p":{"ha":400,"x_min":38,"x_max":363,"o":"m 38 547 q 79 671 38 624 q 199 718 121 718 q 319 670 276 718 q 363 547 363 622 l 363 160 q 319 35 363 82 q 199 -12 276 -12 q 178 -11 185 -12 l 178 -201 l 38 -201 l 38 547 m 178 153 q 199 122 179 122 q 217 132 213 122 q 221 161 221 142 l 221 540 q 217 574 221 564 q 199 585 213 585 q 181 574 185 585 q 178 540 178 564 l 178 153 z "},"q":{"ha":400,"x_min":38,"x_max":363,"o":"m 221 -11 q 200 -12 215 -12 q 80 35 122 -12 q 38 160 38 82 l 38 547 q 81 670 38 622 q 200 718 124 718 q 320 671 278 718 q 363 547 363 624 l 363 -201 l 221 -201 l 221 -11 m 178 161 q 182 132 178 142 q 200 122 186 122 q 216 130 211 122 q 221 153 221 138 l 222 540 q 218 574 222 564 q 200 585 214 585 q 182 574 186 585 q 178 540 178 564 l 178 161 z "},"r":{"ha":400,"x_min":38,"x_max":363,"o":"m 38 546 q 81 670 38 622 q 200 718 124 718 q 320 670 278 718 q 363 546 363 622 l 363 425 l 222 425 l 222 538 q 218 571 222 560 q 200 582 214 582 q 182 571 186 582 q 178 538 178 560 l 176 0 l 38 0 l 38 546 z "},"s":{"ha":401,"x_min":38,"x_max":364,"o":"m 199 -14 q 79 34 121 -14 q 38 158 38 82 l 38 261 l 178 261 l 178 165 q 181 132 178 142 q 199 122 185 122 q 217 132 213 122 q 221 165 221 142 l 221 258 q 217 285 221 278 q 193 297 213 292 q 39 482 39 335 l 39 546 q 81 670 39 622 q 200 718 122 718 q 321 670 278 718 q 364 546 364 622 l 364 471 l 222 471 l 222 540 q 218 572 222 563 q 200 582 214 582 q 182 572 186 582 q 178 540 178 563 l 178 481 q 186 449 178 458 q 217 431 194 439 q 328 367 293 401 q 363 265 363 333 l 363 158 q 319 34 363 82 q 199 -14 276 -14 z "},"t":{"ha":310,"x_min":38,"x_max":272,"o":"m 38 917 l 176 917 l 178 704 l 272 704 l 272 575 l 178 575 l 178 0 l 38 0 l 38 917 z "},"u":{"ha":400,"x_min":38,"x_max":363,"o":"m 199 -14 q 79 34 121 -14 q 38 158 38 82 l 38 704 l 178 704 l 178 167 q 181 133 178 143 q 199 122 185 122 q 217 133 213 122 q 221 167 221 143 l 221 704 l 363 704 l 363 158 q 319 34 363 82 q 199 -14 276 -14 z "},"v":{"ha":407,"x_min":38,"x_max":369,"o":"m 38 704 l 179 704 l 206 290 l 228 704 l 369 704 l 278 0 l 135 0 l 38 704 z "},"w":{"ha":592,"x_min":38,"x_max":554,"o":"m 38 704 l 179 704 l 201 308 l 226 704 l 368 704 l 394 308 l 413 704 l 554 704 l 463 0 l 319 0 l 299 315 l 278 0 l 135 0 l 38 704 z "},"x":{"ha":411,"x_min":38,"x_max":374,"o":"m 113 346 l 38 704 l 179 704 l 208 518 l 232 704 l 374 704 l 303 346 l 374 0 l 232 0 l 206 203 l 179 0 l 38 0 l 113 346 z "},"y":{"ha":407,"x_min":38,"x_max":369,"o":"m 138 25 l 38 704 l 179 704 l 206 292 l 228 704 l 369 704 l 279 22 l 238 -326 l 96 -326 l 138 25 z "},"z":{"ha":369,"x_min":38,"x_max":332,"o":"m 38 110 l 186 572 l 38 572 l 38 704 l 332 704 l 332 593 l 185 132 l 332 132 l 332 0 l 38 0 l 38 110 z "},".":{"ha":250,"x_min":38,"x_max":213,"o":"m 125 0 q 63 26 88 0 q 38 86 38 51 q 63 153 38 126 q 125 181 89 181 q 188 155 164 181 q 213 86 213 129 q 186 26 213 51 q 125 0 160 0 z "},",":{"ha":300,"x_min":38,"x_max":263,"o":"m 118 213 l 263 213 l 182 0 l 38 0 l 118 213 z "},"'":{"ha":314,"x_min":38,"x_max":278,"o":"m 38 917 l 182 917 l 278 665 l 132 665 l 38 917 z "},"\"":{"ha":483,"x_min":38,"x_max":447,"o":"m 38 917 l 182 917 l 278 665 l 132 665 l 38 917 m 207 917 l 351 917 l 447 665 l 301 665 l 207 917 z "},"‘":{"ha":314,"x_min":47,"x_max":288,"o":"m 47 917 l 192 917 l 288 665 l 142 665 l 47 917 z "},"’":{"ha":314,"x_min":28,"x_max":268,"o":"m 28 665 l 124 917 l 268 917 l 174 665 l 28 665 z "},"“":{"ha":550,"x_min":47,"x_max":457,"o":"m 47 917 l 192 917 l 288 665 l 142 665 l 47 917 m 217 917 l 361 917 l 457 665 l 311 665 l 217 917 z "},"”":{"ha":428,"x_min":-28,"x_max":382,"o":"m 142 665 l 238 917 l 382 917 l 288 665 l 142 665 m 68 917 l 213 917 l 118 665 l -28 665 l 68 917 z "},"-":{"ha":476,"x_min":38,"x_max":440,"o":"m 38 497 l 440 497 l 440 356 l 38 356 l 38 497 z "},"+":{"ha":476,"x_min":38,"x_max":440,"o":"m 168 356 l 38 356 l 38 497 l 168 497 l 168 628 l 310 628 l 310 497 l 440 497 l 440 356 l 310 356 l 310 225 l 168 225 l 168 356 z "},"*":{"ha":476,"x_min":40,"x_max":432,"o":"m 157 593 l 103 569 l 46 675 l 86 694 l 40 706 l 64 819 l 110 800 l 99 843 l 192 911 l 210 869 l 224 904 l 336 882 l 325 846 l 364 865 l 432 772 l 383 754 l 429 732 l 407 618 l 368 631 l 392 588 l 293 526 l 268 576 l 249 515 l 136 538 l 157 593 z "},"^":{"ha":532,"x_min":56,"x_max":476,"o":"m 271 917 l 476 654 l 319 654 l 268 739 l 214 654 l 56 651 l 271 917 z "},"/":{"ha":606,"x_min":38,"x_max":569,"o":"m 424 917 l 569 917 l 183 0 l 38 0 l 424 917 z "},"\\":{"ha":606,"x_min":38,"x_max":569,"o":"m 38 917 l 183 917 l 569 0 l 424 0 l 38 917 z "},":":{"ha":243,"x_min":38,"x_max":214,"o":"m 126 33 q 64 59 89 33 q 39 119 39 85 q 65 187 39 160 q 126 214 90 214 q 190 188 165 214 q 214 119 214 163 q 188 59 214 85 q 126 33 161 33 m 125 521 q 63 547 88 521 q 38 607 38 572 q 63 674 38 647 q 125 701 89 701 q 188 676 164 701 q 213 607 213 650 q 186 547 213 572 q 125 521 160 521 z "},";":{"ha":300,"x_min":38,"x_max":263,"o":"m 167 588 q 104 613 129 588 q 79 674 79 639 q 105 741 79 714 q 167 768 131 768 q 230 742 206 768 q 254 674 254 717 q 228 613 254 639 q 167 588 201 588 m 118 258 l 263 258 l 182 46 l 38 46 l 118 258 z "},"<":{"ha":549,"x_min":38,"x_max":513,"o":"m 38 439 l 343 703 l 513 703 l 207 440 l 492 175 l 326 175 l 38 439 z "},"=":{"ha":475,"x_min":38,"x_max":439,"o":"m 38 600 l 439 600 l 439 460 l 38 460 l 38 600 m 38 428 l 439 428 l 439 286 l 38 286 l 38 428 z "},">":{"ha":549,"x_min":38,"x_max":511,"o":"m 342 440 l 38 703 l 206 703 l 511 439 l 222 175 l 57 175 l 342 440 z "},"!":{"ha":226,"x_min":38,"x_max":189,"o":"m 69 917 l 165 917 l 150 182 l 75 182 l 69 917 m 38 75 q 59 128 38 104 q 113 151 81 151 q 167 128 146 151 q 189 75 189 106 q 166 23 189 46 q 113 0 143 0 q 59 22 81 0 q 38 75 38 44 z "},"?":{"ha":406,"x_min":38,"x_max":368,"o":"m 44 354 q 199 546 44 488 q 222 561 215 551 q 228 590 228 571 l 228 749 q 224 783 228 772 q 206 794 219 794 q 188 783 192 794 q 183 749 183 772 l 183 594 l 43 594 l 43 756 q 85 881 43 833 q 206 929 128 929 q 326 881 283 929 q 368 756 368 832 l 368 590 q 330 478 368 519 q 217 406 292 438 q 190 386 197 397 q 183 354 183 375 l 183 188 l 44 188 l 44 354 m 38 76 q 60 129 38 106 q 114 153 82 153 q 169 130 147 153 q 190 76 190 107 q 167 23 190 46 q 114 0 144 0 q 60 23 82 0 q 38 76 38 46 z "},"#":{"ha":1024,"x_min":38,"x_max":986,"o":"m 221 296 l 38 296 l 94 438 l 279 438 l 314 519 l 103 519 l 160 661 l 374 661 l 482 917 l 628 917 l 519 661 l 636 661 l 744 917 l 890 917 l 782 661 l 986 661 l 929 519 l 722 519 l 688 438 l 921 438 l 863 296 l 628 296 l 504 0 l 358 0 l 482 296 l 367 296 l 240 0 l 96 0 l 221 296 m 542 438 l 576 519 l 461 519 l 426 438 l 542 438 z "},"@":{"ha":596,"x_min":38,"x_max":558,"o":"m 319 -83 q 281 -85 307 -85 q 107 -31 176 -85 q 38 146 38 22 l 38 532 q 73 667 38 607 q 166 760 108 726 q 290 793 224 793 q 419 760 357 793 q 519 667 481 726 q 558 532 558 607 l 558 175 q 522 99 558 126 q 438 72 486 72 q 389 81 413 72 q 350 103 365 89 q 294 89 331 89 q 213 121 242 89 q 185 204 185 153 l 185 319 q 213 403 185 371 q 294 436 242 436 l 313 436 l 313 471 q 309 494 313 488 q 294 500 306 500 q 281 494 283 500 q 278 471 278 488 l 278 450 l 185 450 l 185 474 q 213 557 185 525 q 294 589 242 589 q 376 557 347 589 q 406 474 406 525 l 406 201 q 413 176 406 185 q 431 168 421 168 q 450 177 442 168 q 458 201 458 186 l 458 531 q 438 606 458 569 q 380 665 418 642 q 290 688 342 688 q 181 640 219 688 q 142 531 142 593 l 142 144 q 189 47 142 75 q 319 22 236 19 l 319 -83 m 278 208 q 281 184 278 192 q 294 176 285 176 q 309 184 306 176 q 313 208 313 192 l 313 346 l 294 346 q 281 340 283 346 q 278 319 278 335 l 278 208 z "},"$":{"ha":401,"x_min":38,"x_max":364,"o":"m 138 -3 q 63 57 89 14 q 38 158 38 100 l 38 317 l 178 317 l 178 165 q 182 131 178 142 q 200 119 186 119 q 218 131 214 119 q 222 165 222 142 l 222 354 q 216 387 222 376 q 189 406 210 397 q 77 478 115 438 q 39 590 39 519 l 39 756 q 64 858 39 815 q 138 919 89 901 l 138 1014 l 265 1014 l 265 918 q 338 857 313 900 q 364 756 364 814 l 364 594 l 222 594 l 222 753 q 218 785 222 775 q 200 794 214 794 q 182 785 186 794 q 178 753 178 775 l 178 590 q 185 561 178 571 q 208 546 192 551 q 320 472 278 519 q 363 354 363 425 l 363 158 q 338 58 363 101 q 265 -3 313 15 l 265 -81 l 138 -81 l 138 -3 z "},"€":{"ha":467,"x_min":38,"x_max":429,"o":"m 265 -12 q 146 35 188 -12 q 104 158 104 82 l 104 318 l 38 318 l 38 460 l 104 460 l 104 492 l 38 492 l 38 632 l 104 632 l 104 757 q 146 881 104 833 q 265 929 188 929 q 386 882 343 929 q 429 757 429 835 l 429 594 l 308 594 l 308 492 l 244 492 l 244 460 l 308 460 l 308 318 l 244 318 l 244 161 q 248 130 244 140 q 265 119 251 119 q 283 130 279 119 q 288 161 288 140 l 288 317 l 429 317 l 429 158 q 386 35 429 82 q 265 -12 343 -12 m 288 632 l 288 756 q 283 785 288 775 q 265 794 279 794 q 249 785 253 794 q 244 756 244 775 l 244 632 l 288 632 z "},"%":{"ha":965,"x_min":38,"x_max":928,"o":"m 165 172 q 71 210 104 172 q 38 308 38 247 l 38 779 q 71 878 38 840 q 165 917 104 917 q 263 879 228 917 q 297 779 297 842 l 297 308 q 263 210 297 249 q 165 172 228 172 m 150 315 q 153 286 150 294 q 165 278 156 278 q 180 287 176 278 q 183 315 183 296 l 183 396 l 150 396 l 150 315 m 183 525 l 183 774 q 180 801 183 792 q 165 810 176 810 q 153 801 156 810 q 150 774 150 793 l 150 525 l 183 525 m 600 915 l 746 915 l 360 -1 l 214 -1 l 600 915 m 658 629 q 693 733 658 693 q 792 772 728 772 q 892 733 857 772 q 928 629 928 693 l 928 142 q 892 40 928 79 q 792 1 857 1 q 693 40 728 1 q 658 142 658 79 l 658 629 m 775 150 q 778 120 775 129 q 792 111 781 111 q 807 120 804 111 q 810 150 810 129 l 810 232 l 775 232 l 775 150 m 810 367 l 810 624 q 807 653 810 644 q 792 661 804 661 q 778 652 781 661 q 775 624 775 643 l 775 367 l 810 367 z "},"&":{"ha":950,"x_min":38,"x_max":913,"o":"m 340 0 q 190 30 260 0 q 79 120 121 60 q 38 265 38 181 q 71 397 38 333 q 171 499 104 460 q 331 538 238 539 q 284 625 299 586 q 269 707 269 664 q 305 828 269 781 q 391 896 340 875 q 489 917 442 917 q 595 892 542 917 q 685 814 649 867 q 721 683 721 761 l 721 581 l 579 581 l 579 683 q 554 760 579 744 q 485 776 529 776 q 403 711 403 776 q 418 639 403 668 q 472 560 433 610 l 913 0 l 758 0 l 600 192 q 510 49 582 97 q 340 0 438 0 m 178 265 q 325 132 178 132 q 428 165 389 132 q 468 268 468 199 q 426 367 468 328 q 321 407 383 407 q 218 371 258 407 q 178 265 178 335 z "},"(":{"ha":419,"x_min":38,"x_max":383,"o":"m 339 -18 q 194 55 264 -18 q 81 244 124 128 q 38 485 38 361 q 116 819 38 692 q 313 996 194 947 l 379 869 q 232 715 281 807 q 183 488 183 624 q 235 235 183 335 q 383 118 288 135 l 339 -18 z "},")":{"ha":414,"x_min":31,"x_max":376,"o":"m 31 118 q 178 235 126 135 q 231 488 231 335 q 182 715 231 624 q 35 869 133 807 l 101 996 q 298 819 219 947 q 376 485 376 692 q 333 244 376 361 q 220 55 290 128 q 75 -18 150 -18 l 31 118 z "},"{":{"ha":382,"x_min":38,"x_max":346,"o":"m 346 -53 q 319 -54 338 -54 q 167 8 222 -54 q 111 161 111 71 q 122 236 111 183 q 129 271 124 242 q 135 332 135 300 q 119 384 135 367 q 76 418 104 401 q 47 440 57 431 q 38 464 38 449 q 47 489 38 479 q 76 511 57 499 q 119 545 104 526 q 135 599 135 564 q 129 669 135 635 q 122 708 124 703 q 113 767 114 747 q 111 800 111 778 q 160 953 111 903 q 278 1004 208 1004 q 303 1003 294 1004 l 303 863 q 288 864 297 864 q 251 811 251 864 q 254 776 251 804 q 260 735 257 753 q 264 704 263 718 q 275 600 275 626 q 260 521 275 554 q 208 464 244 488 q 259 407 243 439 q 275 331 275 375 q 265 254 275 300 q 254 157 254 193 q 324 89 254 89 q 346 90 338 89 l 346 -53 z "},"|":{"ha":215,"x_min":38,"x_max":178,"o":"m 38 947 l 178 947 l 178 -35 l 38 -35 l 38 947 z "},"}":{"ha":382,"x_min":36,"x_max":344,"o":"m 36 90 q 58 89 44 89 q 128 157 128 89 q 117 254 128 193 q 107 331 107 300 q 123 407 107 375 q 174 464 139 439 q 122 521 138 488 q 107 600 107 554 q 118 704 107 626 q 122 735 119 718 q 128 776 125 753 q 131 811 131 804 q 94 864 131 864 q 79 863 85 864 l 79 1003 q 104 1004 88 1004 q 222 953 174 1004 q 271 800 271 903 q 269 767 271 778 q 260 708 268 747 q 253 669 258 703 q 247 599 247 635 q 263 545 247 564 q 306 511 278 526 q 335 489 325 499 q 344 464 344 479 q 335 440 344 449 q 306 418 325 431 q 263 384 278 401 q 247 332 247 367 q 253 271 247 300 q 260 236 258 242 q 271 161 271 183 q 243 47 271 99 q 163 -32 215 -4 q 36 -53 110 -60 l 36 90 z "},"[":{"ha":310,"x_min":38,"x_max":272,"o":"m 38 965 l 272 965 l 272 824 l 183 824 l 183 -53 l 272 -53 l 272 -194 l 38 -194 l 38 965 z "},"]":{"ha":310,"x_min":38,"x_max":272,"o":"m 38 -194 l 38 -53 l 126 -53 l 126 824 l 38 824 l 38 965 l 272 965 l 272 -194 l 38 -194 z "},"‚":{"ha":300,"x_min":38,"x_max":263,"o":"m 118 213 l 263 213 l 182 0 l 38 0 l 118 213 z "},"„":{"ha":460,"x_min":38,"x_max":422,"o":"m 118 213 l 263 213 l 182 0 l 38 0 l 118 213 m 278 213 l 422 213 l 342 0 l 197 0 l 278 213 z "},"•":{"ha":292,"x_min":38,"x_max":264,"o":"m 150 292 q 70 325 103 292 q 38 403 38 358 q 70 490 38 456 q 150 525 103 525 q 233 492 201 525 q 264 403 264 460 q 229 326 264 360 q 150 292 194 292 z "},"_":{"ha":610,"x_min":38,"x_max":574,"o":"m 38 207 l 574 207 l 574 65 l 38 65 l 38 207 z "},"–":{"ha":604,"x_min":38,"x_max":567,"o":"m 38 456 l 567 456 l 567 315 l 38 315 l 38 456 z "},"—":{"ha":710,"x_min":38,"x_max":674,"o":"m 38 454 l 674 454 l 674 314 l 38 314 l 38 454 z "},"¯":{"ha":499,"x_min":38,"x_max":461,"o":"m 38 939 l 461 939 l 461 797 l 38 797 l 38 939 z "},"¬":{"ha":708,"x_min":38,"x_max":672,"o":"m 531 314 l 38 314 l 38 454 l 672 454 l 672 171 l 531 171 l 531 314 z "},"™":{"ha":475,"x_min":38,"x_max":438,"o":"m 81 854 l 38 854 l 38 917 l 244 917 l 310 846 l 375 917 l 438 917 l 438 450 l 369 450 l 369 813 l 331 768 l 290 768 l 250 813 l 250 450 l 181 450 l 181 854 l 149 854 l 149 450 l 81 450 l 81 854 z "},"®":{"ha":453,"x_min":38,"x_max":415,"o":"m 224 231 q 92 277 146 232 q 38 417 38 322 l 38 749 q 66 842 38 804 q 138 898 94 879 q 226 917 181 917 q 315 898 272 917 q 387 842 358 879 q 415 749 415 804 l 415 417 q 360 277 415 322 q 224 231 306 232 m 103 438 q 225 297 103 300 q 317 331 285 299 q 350 438 350 364 l 350 728 q 314 820 350 789 q 226 851 278 851 q 139 820 175 851 q 103 728 103 789 l 103 438 m 154 794 l 219 794 q 282 774 260 794 q 304 722 304 754 l 304 624 q 292 582 304 601 q 304 533 304 568 l 304 356 l 239 356 l 239 533 q 237 547 239 543 q 228 551 235 551 l 222 551 l 222 356 l 154 356 l 154 794 m 222 613 q 237 614 235 613 q 239 624 239 615 l 239 729 q 236 738 239 736 q 222 739 233 739 l 222 613 z "},"©":{"ha":453,"x_min":38,"x_max":415,"o":"m 224 231 q 92 277 146 232 q 38 417 38 322 l 38 749 q 66 842 38 804 q 138 898 94 879 q 226 917 181 917 q 315 898 272 917 q 387 842 358 879 q 415 749 415 804 l 415 417 q 360 277 415 322 q 224 231 306 232 m 103 438 q 225 297 103 300 q 317 331 285 299 q 350 438 350 364 l 350 728 q 314 820 350 789 q 226 851 278 851 q 139 820 175 851 q 103 728 103 789 l 103 438 m 149 718 q 169 776 149 754 q 225 799 189 799 q 282 776 261 799 q 303 718 303 754 l 303 642 l 236 642 l 236 718 q 225 735 236 735 q 217 731 218 735 q 215 718 215 728 l 215 438 q 217 422 215 426 q 225 418 218 418 q 234 423 232 418 q 236 438 236 428 l 236 511 l 303 511 l 303 436 q 282 378 303 400 q 225 356 261 356 q 169 378 189 356 q 149 436 149 400 l 149 718 z "},"¤":{"ha":565,"x_min":38,"x_max":528,"o":"m 136 225 q 118 313 118 261 l 118 601 q 142 699 118 661 l 49 850 l 197 850 l 249 771 q 279 774 265 774 q 326 767 301 774 l 378 850 l 528 850 l 425 686 q 443 601 443 650 l 443 313 q 426 231 443 268 l 526 71 l 376 71 l 328 149 q 279 142 303 142 q 239 146 258 142 l 188 65 l 38 65 l 136 225 m 258 315 q 262 283 258 292 q 279 275 265 275 q 297 283 293 275 q 301 315 301 292 l 301 600 q 298 630 301 622 q 279 638 294 638 q 262 630 265 638 q 258 600 258 622 l 258 315 z "},"¢":{"ha":400,"x_min":38,"x_max":363,"o":"m 124 3 q 59 63 81 22 q 38 158 38 104 l 38 757 q 59 853 38 813 q 124 913 81 894 l 124 1006 l 276 1006 l 276 913 q 340 852 318 893 q 363 757 363 811 l 363 594 l 221 594 l 221 746 q 217 783 221 771 q 199 794 213 794 q 181 783 185 794 q 178 746 178 771 l 178 168 q 181 131 178 143 q 199 119 185 119 q 217 131 213 119 q 221 168 221 143 l 221 317 l 363 317 l 363 158 q 340 64 363 104 q 276 4 318 24 l 276 -96 l 124 -96 l 124 3 z "},"£":{"ha":750,"x_min":38,"x_max":711,"o":"m 107 0 q 184 135 158 67 q 210 290 210 204 q 192 435 210 353 l 38 435 l 38 576 l 149 576 q 129 629 136 606 q 122 678 122 653 q 165 808 122 754 q 274 890 207 863 q 413 917 340 917 q 557 876 488 917 q 669 772 626 836 q 711 640 711 708 q 710 613 711 621 l 567 613 q 569 636 569 629 q 526 734 569 693 q 407 775 482 775 q 308 751 349 775 q 268 686 268 728 q 272 661 268 674 q 304 576 283 619 l 504 576 l 504 435 l 346 435 q 364 285 364 364 q 344 142 364 207 l 665 142 l 665 0 l 107 0 z "},"¥":{"ha":458,"x_min":32,"x_max":433,"o":"m 163 101 l 32 101 l 32 243 l 163 243 l 163 275 l 32 275 l 32 415 l 163 415 l 163 432 l 50 917 l 193 917 l 233 729 l 272 917 l 415 917 l 303 432 l 303 415 l 433 415 l 433 275 l 303 275 l 303 243 l 433 243 l 433 101 l 303 101 l 303 0 l 163 0 l 163 101 z "},"ƒ":{"ha":618,"x_min":38,"x_max":582,"o":"m 38 0 q 88 177 67 101 q 135 361 108 253 l 75 361 l 75 500 l 160 501 l 171 567 q 176 606 174 578 q 203 735 190 688 q 244 822 217 783 q 324 892 278 868 q 446 917 369 917 l 582 917 l 582 775 l 488 775 q 408 769 432 775 q 367 740 385 763 q 330 666 342 711 q 307 546 318 621 l 299 500 l 422 500 l 422 360 l 275 360 q 246 242 282 383 q 181 0 204 82 l 38 0 z "},"−":{"ha":476,"x_min":38,"x_max":440,"o":"m 38 497 l 440 497 l 440 356 l 38 356 l 38 497 z "},"±":{"ha":485,"x_min":50,"x_max":453,"o":"m 181 543 l 50 543 l 50 685 l 181 685 l 181 815 l 322 815 l 322 685 l 453 685 l 453 543 l 322 543 l 322 413 l 181 413 l 181 543 m 50 307 l 453 307 l 453 165 l 50 165 l 50 307 z "},"×":{"ha":458,"x_min":38,"x_max":422,"o":"m 129 469 l 38 563 l 138 663 l 229 571 l 322 663 l 422 563 l 329 469 l 422 378 l 322 278 l 229 369 l 138 278 l 38 378 l 129 469 z "},"÷":{"ha":476,"x_min":38,"x_max":440,"o":"m 38 497 l 440 497 l 440 356 l 38 356 l 38 497 m 239 154 q 176 180 201 154 q 151 240 151 206 q 177 308 151 281 q 239 335 203 335 q 302 309 278 335 q 326 240 326 283 q 300 180 326 206 q 239 154 274 154 m 239 521 q 176 547 201 521 q 151 607 151 572 q 177 674 151 647 q 239 701 203 701 q 302 676 278 701 q 326 607 326 650 q 300 547 326 572 q 239 521 274 521 z "},"¦":{"ha":215,"x_min":38,"x_max":178,"o":"m 38 422 l 178 422 l 178 -31 l 38 -31 l 38 422 m 38 929 l 178 929 l 178 543 l 38 543 l 38 929 z "},"…":{"ha":650,"x_min":38,"x_max":621,"o":"m 125 0 q 63 26 88 0 q 38 86 38 51 q 63 153 38 126 q 125 181 89 181 q 188 155 164 181 q 213 86 213 129 q 186 26 213 51 q 125 0 160 0 m 331 0 q 268 26 293 0 q 243 86 243 51 q 269 153 243 126 q 331 181 294 181 q 394 155 369 181 q 418 86 418 129 q 392 26 418 51 q 331 0 365 0 m 533 0 q 471 26 496 0 q 446 86 446 51 q 472 153 446 126 q 533 181 497 181 q 597 155 572 181 q 621 86 621 129 q 594 26 621 51 q 533 0 568 0 z "},"·":{"ha":242,"x_min":38,"x_max":213,"o":"m 125 331 q 63 356 88 331 q 38 417 38 382 q 63 484 38 457 q 125 511 89 511 q 188 485 164 511 q 213 417 213 460 q 186 356 213 382 q 125 331 160 331 z "},"¡":{"ha":226,"x_min":38,"x_max":189,"o":"m 150 558 l 165 -176 l 69 -176 l 75 558 l 150 558 m 38 665 q 59 718 38 696 q 113 740 81 740 q 166 717 143 740 q 189 665 189 694 q 167 612 189 635 q 113 589 146 589 q 59 613 81 589 q 38 665 38 636 z "},"¿":{"ha":406,"x_min":38,"x_max":368,"o":"m 361 389 q 207 197 361 256 q 184 182 190 192 q 178 153 178 172 l 178 -6 q 182 -40 178 -29 q 200 -51 186 -51 q 218 -40 214 -51 q 222 -6 222 -29 l 222 149 l 363 149 l 363 -12 q 320 -138 363 -90 q 200 -186 278 -186 q 80 -137 122 -186 q 38 -12 38 -89 l 38 153 q 76 265 38 224 q 189 338 114 306 q 215 357 208 346 q 222 389 222 368 l 222 556 l 361 556 l 361 389 m 215 667 q 238 720 215 697 q 292 743 261 743 q 346 720 324 743 q 368 667 368 697 q 346 614 368 638 q 292 590 324 590 q 237 613 258 590 q 215 667 215 636 z "},"°":{"ha":332,"x_min":38,"x_max":296,"o":"m 167 639 q 72 682 106 639 q 38 778 38 725 q 72 874 38 831 q 168 917 106 917 q 262 874 228 917 q 296 778 296 831 q 261 682 296 725 q 167 639 226 639 m 136 776 q 144 756 136 767 q 167 746 153 746 q 188 756 181 746 q 196 776 196 767 q 188 799 196 789 q 167 810 181 810 q 144 799 153 810 q 136 776 136 789 z "},"⁄":{"ha":606,"x_min":38,"x_max":569,"o":"m 424 917 l 569 917 l 183 0 l 38 0 l 424 917 z "},"‰":{"ha":1288,"x_min":38,"x_max":1250,"o":"m 171 144 q 72 183 107 144 q 38 285 38 222 l 38 772 q 72 876 38 836 q 171 915 107 915 q 270 876 235 915 q 306 772 306 836 l 306 285 q 270 183 306 222 q 171 144 235 144 m 153 293 q 156 263 153 272 q 171 254 160 254 q 185 263 182 254 q 189 293 189 272 l 189 375 l 153 375 l 153 293 m 189 510 l 189 767 q 185 795 189 786 q 171 804 182 804 q 156 795 160 804 q 153 767 153 786 l 153 510 l 189 510 m 614 915 l 760 915 l 374 -1 l 228 -1 l 614 915 m 676 636 q 711 740 676 700 q 810 779 746 779 q 909 740 874 779 q 944 636 944 700 l 944 149 q 909 47 944 86 q 810 8 874 8 q 711 47 746 8 q 676 149 676 86 l 676 636 m 792 157 q 795 127 792 136 q 810 118 799 118 q 824 127 821 118 q 828 157 828 136 l 828 239 l 792 239 l 792 157 m 828 374 l 828 631 q 824 659 828 650 q 810 668 821 668 q 795 659 799 668 q 792 631 792 650 l 792 374 l 828 374 m 982 636 q 1017 740 982 700 q 1115 779 1051 779 q 1215 740 1179 779 q 1250 636 1250 700 l 1250 149 q 1215 47 1250 86 q 1115 8 1179 8 q 1017 47 1051 8 q 982 149 982 86 l 982 636 m 1097 157 q 1101 127 1097 136 q 1115 118 1104 118 q 1130 127 1126 118 q 1133 157 1133 136 l 1133 239 l 1097 239 l 1097 157 m 1133 374 l 1133 631 q 1130 659 1133 650 q 1115 668 1126 668 q 1101 659 1104 668 q 1097 631 1097 650 l 1097 374 l 1133 374 z "},"¶":{"ha":574,"x_min":38,"x_max":536,"o":"m 221 176 q 200 175 215 175 q 80 222 122 175 q 38 347 38 269 l 38 746 q 81 869 38 821 q 200 917 124 917 q 320 869 278 917 q 363 746 363 822 l 363 0 l 221 0 l 221 176 m 178 357 q 200 310 178 310 q 221 349 221 310 l 222 733 q 218 771 222 758 q 200 783 214 783 q 182 771 186 783 q 178 733 178 758 l 178 357 m 396 917 l 536 917 l 536 0 l 396 0 l 396 917 z "},"§":{"ha":401,"x_min":38,"x_max":364,"o":"m 199 -101 q 79 -53 121 -101 q 38 71 38 -6 l 38 181 l 178 181 l 178 78 q 181 44 178 54 q 199 35 185 35 q 217 44 213 35 q 221 78 221 54 l 221 171 q 217 197 221 190 q 193 208 213 204 q 39 394 39 249 l 39 468 q 68 576 39 533 q 39 683 39 618 l 39 757 q 81 881 39 833 q 200 929 122 929 q 321 882 278 929 q 364 757 364 835 l 364 663 l 222 663 l 222 749 q 218 783 222 772 q 200 794 214 794 q 182 783 186 794 q 178 749 178 772 l 178 682 q 186 650 178 660 q 217 632 194 640 q 328 569 293 603 q 363 465 363 535 l 363 360 q 340 264 363 306 q 363 178 363 228 l 363 71 q 319 -53 363 -6 q 199 -101 276 -101 m 178 408 q 184 376 178 388 q 203 360 190 365 l 213 356 q 221 393 221 364 l 221 460 q 216 487 221 479 q 196 497 211 494 l 188 500 q 178 467 178 493 l 178 408 z "},"†":{"ha":389,"x_min":38,"x_max":353,"o":"m 122 775 l 38 775 l 38 917 l 122 917 l 122 999 l 264 999 l 264 917 l 353 917 l 353 775 l 264 775 l 264 392 l 122 392 l 122 775 z "},"‡":{"ha":389,"x_min":38,"x_max":353,"o":"m 122 603 l 38 603 l 38 744 l 122 744 l 122 775 l 38 775 l 38 917 l 122 917 l 122 999 l 264 999 l 264 917 l 353 917 l 353 775 l 264 775 l 264 744 l 353 744 l 353 603 l 264 603 l 264 392 l 122 392 l 122 603 z "},"~":{"ha":657,"x_min":38,"x_max":619,"o":"m 38 342 q 103 506 50 436 q 225 576 156 576 q 304 558 272 576 q 369 508 336 540 q 404 479 390 489 q 433 469 418 469 q 469 483 457 468 q 496 547 481 497 l 619 519 q 456 328 568 328 q 385 343 413 328 q 324 389 357 358 q 278 424 296 413 q 236 436 260 435 q 196 408 213 438 q 156 315 179 379 l 38 342 z "},"‹":{"ha":549,"x_min":38,"x_max":513,"o":"m 38 439 l 343 703 l 513 703 l 207 440 l 492 175 l 326 175 l 38 439 z "},"›":{"ha":549,"x_min":36,"x_max":511,"o":"m 57 175 l 342 440 l 36 703 l 206 703 l 511 439 l 222 175 l 57 175 z "},"«":{"ha":990,"x_min":38,"x_max":954,"o":"m 38 439 l 343 703 l 513 703 l 207 440 l 492 175 l 326 175 l 38 439 m 479 432 l 785 696 l 954 696 l 649 433 l 933 168 l 768 168 l 479 432 z "},"»":{"ha":990,"x_min":36,"x_max":953,"o":"m 499 163 l 783 428 l 478 690 l 647 690 l 953 426 l 664 163 l 499 163 m 206 683 l 511 419 l 222 156 l 57 156 l 342 421 l 36 683 l 206 683 z "},"`":{"ha":307,"x_min":38,"x_max":271,"o":"m 38 844 l 182 844 l 271 631 l 125 631 l 38 844 z "},"¨":{"ha":408,"x_min":38,"x_max":361,"o":"m 115 704 q 60 727 82 704 q 38 781 38 750 q 60 841 38 817 q 115 865 83 865 q 172 842 150 865 q 194 781 194 819 q 171 727 194 750 q 115 704 147 704 m 204 782 q 227 842 204 818 q 282 867 250 867 q 340 844 318 867 q 361 782 361 821 q 338 728 361 751 q 282 704 314 704 q 226 727 249 704 q 204 782 204 750 z "},"´":{"ha":307,"x_min":36,"x_max":269,"o":"m 36 631 l 125 844 l 269 844 l 182 631 l 36 631 z "},"¸":{"ha":385,"x_min":38,"x_max":349,"o":"m 144 -50 q 185 -47 175 -50 q 200 -32 196 -43 q 178 2 210 -14 q 74 35 146 18 l 163 188 l 304 188 l 257 94 q 326 42 303 74 q 349 -25 349 11 q 342 -67 349 -43 q 264 -151 324 -125 q 124 -178 204 -178 q 38 -171 83 -178 l 38 -47 l 144 -50 z "},"ˆ":{"ha":417,"x_min":38,"x_max":381,"o":"m 211 956 l 381 665 l 229 668 l 210 706 l 188 667 l 38 667 l 211 956 z "},"ˇ":{"ha":451,"x_min":38,"x_max":381,"o":"m 188 961 l 210 922 l 229 960 l 381 963 l 211 672 l 38 961 l 188 961 z "},"˘":{"ha":472,"x_min":38,"x_max":435,"o":"m 235 726 q 103 783 157 726 q 38 935 49 839 l 174 935 q 199 878 183 893 q 235 863 214 863 q 269 878 256 863 q 294 935 283 893 l 435 935 q 361 781 411 836 q 235 726 311 726 z "},"˙":{"ha":258,"x_min":38,"x_max":221,"o":"m 129 733 q 64 760 90 733 q 38 825 38 788 q 65 888 38 860 q 129 917 92 917 q 194 890 168 917 q 221 825 221 863 q 193 761 221 789 q 129 733 165 733 z "},"˚":{"ha":332,"x_min":38,"x_max":296,"o":"m 167 638 q 72 681 106 638 q 38 776 38 724 q 72 872 38 829 q 168 915 106 915 q 262 872 228 915 q 296 776 296 829 q 261 681 296 724 q 167 638 226 638 m 136 775 q 144 755 136 765 q 167 744 153 744 q 188 755 181 744 q 196 775 196 765 q 188 798 196 788 q 167 808 181 808 q 144 798 153 808 q 136 775 136 788 z "},"˛":{"ha":363,"x_min":36,"x_max":325,"o":"m 325 -93 q 185 -133 250 -133 q 94 -110 132 -133 q 43 -47 57 -86 q 36 -6 36 -26 q 81 101 36 51 q 214 171 125 150 l 246 157 l 276 58 q 192 25 215 39 q 172 -3 168 11 q 189 -12 176 -12 q 292 24 215 -12 l 325 -93 z "},"˝":{"ha":492,"x_min":74,"x_max":418,"o":"m 176 917 l 418 917 l 319 696 l 74 696 l 176 917 z "},"ª":{"ha":307,"x_min":38,"x_max":269,"o":"m 153 396 q 67 430 97 396 q 38 518 38 464 l 38 636 q 67 724 38 690 q 153 758 97 758 l 168 758 l 168 793 q 166 815 168 810 q 153 821 164 821 q 140 815 143 821 q 138 793 138 808 l 138 772 l 38 772 l 38 796 q 67 884 38 850 q 153 918 97 918 q 239 884 208 918 q 269 796 269 850 l 269 518 q 239 430 269 464 q 153 396 208 396 m 138 519 q 141 497 138 504 q 153 490 144 490 q 165 497 163 490 q 168 519 168 503 l 168 661 l 153 661 q 140 656 143 661 q 138 635 138 650 l 138 519 z "},"¹":{"ha":228,"x_min":38,"x_max":190,"o":"m 103 806 l 69 790 l 38 868 l 103 900 l 103 921 l 190 921 l 190 347 l 103 347 l 103 806 z "},"º":{"ha":254,"x_min":38,"x_max":218,"o":"m 126 513 q 61 540 85 513 q 38 608 38 567 l 38 824 q 60 892 38 865 q 126 918 83 918 q 194 892 169 918 q 218 824 218 865 l 218 608 q 194 540 218 567 q 126 513 169 513 m 115 611 q 117 592 115 597 q 126 588 119 588 q 137 593 135 588 q 139 611 139 599 l 139 819 q 137 838 139 832 q 126 843 135 843 q 117 838 119 843 q 115 819 115 833 l 115 611 z "},"¼":{"ha":772,"x_min":38,"x_max":735,"o":"m 108 796 l 72 779 l 38 863 l 108 896 l 108 918 l 201 918 l 201 307 l 108 307 l 108 796 m 444 917 l 572 917 l 233 -3 l 107 -3 l 444 917 m 474 575 l 568 575 l 568 261 l 590 261 l 590 347 l 683 347 l 683 261 l 735 261 l 735 168 l 683 168 l 683 -24 l 590 -24 l 590 168 l 474 168 l 474 575 z "},"½":{"ha":696,"x_min":38,"x_max":658,"o":"m 108 799 l 72 782 l 38 865 l 108 899 l 108 921 l 201 921 l 201 310 l 108 310 l 108 799 m 443 917 l 561 917 l 247 0 l 129 0 l 443 917 m 442 507 q 470 590 442 558 q 550 622 499 622 q 630 590 601 622 q 658 507 658 558 l 658 361 q 638 290 658 319 q 585 246 617 261 q 550 220 563 233 q 538 185 538 207 l 538 96 l 651 96 l 651 3 l 446 3 l 446 179 q 543 324 446 272 q 565 361 565 335 l 565 503 q 562 525 565 518 q 550 532 558 532 q 538 525 542 532 q 535 503 535 518 l 535 425 l 442 425 l 442 507 z "},"¾":{"ha":808,"x_min":38,"x_max":772,"o":"m 150 289 q 70 321 99 289 q 42 404 42 353 l 42 486 l 136 486 l 136 411 q 139 388 136 396 q 150 379 142 379 q 163 387 160 379 q 165 411 165 394 l 165 540 q 158 564 165 558 q 125 571 150 569 l 125 654 q 153 659 144 654 q 161 681 161 664 l 161 797 q 158 819 161 813 q 146 826 154 826 q 134 819 138 826 q 131 797 131 813 l 131 719 l 38 719 l 38 801 q 66 885 38 853 q 146 917 94 917 q 226 885 197 917 q 254 801 254 853 l 254 664 q 244 617 254 642 q 258 571 258 596 l 258 404 q 231 321 258 353 q 150 289 203 289 m 475 917 l 589 917 l 288 -3 l 174 -3 l 475 917 m 511 575 l 604 575 l 604 261 l 628 261 l 628 347 l 719 347 l 719 261 l 772 261 l 772 168 l 719 168 l 719 -24 l 628 -24 l 628 168 l 511 168 l 511 575 z "},"²":{"ha":292,"x_min":38,"x_max":254,"o":"m 42 474 q 139 618 42 567 q 161 656 161 629 l 161 797 q 158 819 161 813 q 146 826 154 826 q 134 819 138 826 q 131 797 131 813 l 131 719 l 38 719 l 38 801 q 66 885 38 853 q 146 917 94 917 q 226 885 197 917 q 254 801 254 853 l 254 656 q 233 585 254 614 q 181 540 213 556 q 146 515 158 528 q 133 479 133 501 l 133 390 l 247 390 l 247 297 l 42 297 l 42 474 z "},"³":{"ha":296,"x_min":38,"x_max":258,"o":"m 150 289 q 70 321 99 289 q 42 404 42 353 l 42 486 l 136 486 l 136 411 q 139 388 136 396 q 150 379 142 379 q 163 387 160 379 q 165 411 165 394 l 165 540 q 158 564 165 558 q 125 571 150 569 l 125 654 q 153 659 144 654 q 161 681 161 664 l 161 797 q 158 819 161 813 q 146 826 154 826 q 134 819 138 826 q 131 797 131 813 l 131 719 l 38 719 l 38 801 q 66 885 38 853 q 146 917 94 917 q 226 885 197 917 q 254 801 254 853 l 254 664 q 244 617 254 642 q 258 571 258 596 l 258 404 q 231 321 258 353 q 150 289 203 289 z "},"Á":{"ha":475,"x_min":38,"x_max":439,"o":"m 174 917 l 304 917 l 439 0 l 300 0 l 286 97 l 189 97 l 175 0 l 38 0 l 174 917 m 268 226 l 239 426 l 208 226 l 268 226 z "},"Ă":{"ha":475,"x_min":38,"x_max":450,"o":"m 174 917 l 304 917 l 439 0 l 300 0 l 286 97 l 189 97 l 175 0 l 38 0 l 174 917 m 268 226 l 239 426 l 208 226 l 268 226 z "},"Â":{"ha":475,"x_min":38,"x_max":439,"o":"m 174 917 l 304 917 l 439 0 l 300 0 l 286 97 l 189 97 l 175 0 l 38 0 l 174 917 m 268 226 l 239 426 l 208 226 l 268 226 z "},"Ä":{"ha":475,"x_min":38,"x_max":439,"o":"m 174 917 l 304 917 l 439 0 l 300 0 l 286 97 l 189 97 l 175 0 l 38 0 l 174 917 m 268 226 l 239 426 l 208 226 l 268 226 m 142 951 q 76 978 103 951 q 50 1042 50 1006 q 77 1112 50 1083 q 142 1140 104 1140 q 208 1114 183 1140 q 233 1042 233 1088 q 206 979 233 1007 q 142 951 178 951 m 244 1043 q 271 1114 244 1086 q 336 1142 297 1142 q 403 1115 378 1142 q 428 1043 428 1089 q 400 980 428 1007 q 336 953 372 953 q 270 979 296 953 q 244 1043 244 1006 z "},"À":{"ha":475,"x_min":38,"x_max":439,"o":"m 174 917 l 304 917 l 439 0 l 300 0 l 286 97 l 189 97 l 175 0 l 38 0 l 174 917 m 268 226 l 239 426 l 208 226 l 268 226 z "},"Ā":{"ha":475,"x_min":38,"x_max":439,"o":"m 174 917 l 304 917 l 439 0 l 300 0 l 286 97 l 189 97 l 175 0 l 38 0 l 174 917 m 268 226 l 239 426 l 208 226 l 268 226 m 69 1131 l 428 1131 l 428 989 l 69 989 l 69 1131 z "},"Ą":{"ha":506,"x_min":38,"x_max":483,"o":"m 174 917 l 304 917 l 439 0 l 431 0 q 349 -32 372 -18 q 331 -60 326 -46 q 347 -69 335 -69 q 450 -33 374 -69 l 483 -150 q 343 -190 408 -190 q 253 -167 290 -190 q 201 -104 215 -143 q 194 -62 194 -83 q 218 17 194 -21 q 289 82 242 56 l 286 97 l 189 97 l 175 0 l 38 0 l 174 917 m 268 226 l 239 426 l 208 226 l 268 226 z "},"Å":{"ha":475,"x_min":38,"x_max":439,"o":"m 174 917 l 304 917 l 439 0 l 300 0 l 286 97 l 189 97 l 175 0 l 38 0 l 174 917 m 268 226 l 239 426 l 208 226 l 268 226 z "},"Ã":{"ha":475,"x_min":7,"x_max":460,"o":"m 174 917 l 304 917 l 439 0 l 300 0 l 286 97 l 189 97 l 175 0 l 38 0 l 174 917 m 268 226 l 239 426 l 208 226 l 268 226 z "},"Æ":{"ha":628,"x_min":38,"x_max":590,"o":"m 168 917 l 294 917 l 310 808 l 310 917 l 590 917 l 590 785 l 450 785 l 450 540 l 568 540 l 568 410 l 450 410 l 450 131 l 590 131 l 590 0 l 290 0 l 276 97 l 183 97 l 169 0 l 38 0 l 168 917 m 260 226 l 231 426 l 201 226 l 260 226 z "},"Ć":{"ha":400,"x_min":38,"x_max":363,"o":"m 199 -12 q 79 35 121 -12 q 38 158 38 82 l 38 757 q 79 881 38 833 q 199 929 121 929 q 319 882 276 929 q 363 757 363 835 l 363 594 l 221 594 l 221 756 q 217 785 221 775 q 199 794 213 794 q 182 785 186 794 q 178 756 178 775 l 178 161 q 181 130 178 140 q 199 119 185 119 q 217 130 213 119 q 221 161 221 140 l 221 317 l 363 317 l 363 158 q 319 35 363 82 q 199 -12 276 -12 z "},"Č":{"ha":400,"x_min":25,"x_max":368,"o":"m 199 -12 q 79 35 121 -12 q 38 158 38 82 l 38 757 q 79 881 38 833 q 199 929 121 929 q 319 882 276 929 q 363 757 363 835 l 363 594 l 221 594 l 221 756 q 217 785 221 775 q 199 794 213 794 q 182 785 186 794 q 178 756 178 775 l 178 161 q 181 130 178 140 q 199 119 185 119 q 217 130 213 119 q 221 161 221 140 l 221 317 l 363 317 l 363 158 q 319 35 363 82 q 199 -12 276 -12 z "},"Ç":{"ha":400,"x_min":21,"x_max":363,"o":"m 128 -172 q 169 -169 158 -172 q 183 -154 179 -165 q 161 -120 193 -136 q 57 -87 129 -104 l 113 8 q 57 68 76 29 q 38 158 38 107 l 38 757 q 79 881 38 833 q 199 929 121 929 q 319 882 276 929 q 363 757 363 835 l 363 594 l 221 594 l 221 756 q 217 785 221 775 q 199 794 213 794 q 182 785 186 794 q 178 756 178 775 l 178 161 q 181 130 178 140 q 199 119 185 119 q 217 130 213 119 q 221 161 221 140 l 221 317 l 363 317 l 363 158 q 333 53 363 97 q 251 -6 304 8 l 240 -28 q 309 -80 286 -49 q 332 -147 332 -111 q 325 -189 332 -165 q 247 -274 307 -247 q 107 -300 188 -300 q 21 -293 67 -300 l 21 -169 l 128 -172 z "},"Ċ":{"ha":400,"x_min":38,"x_max":363,"o":"m 199 -12 q 79 35 121 -12 q 38 158 38 82 l 38 757 q 79 881 38 833 q 199 929 121 929 q 319 882 276 929 q 363 757 363 835 l 363 594 l 221 594 l 221 756 q 217 785 221 775 q 199 794 213 794 q 182 785 186 794 q 178 756 178 775 l 178 161 q 181 130 178 140 q 199 119 185 119 q 217 130 213 119 q 221 161 221 140 l 221 317 l 363 317 l 363 158 q 319 35 363 82 q 199 -12 276 -12 z "},"Ð":{"ha":529,"x_min":38,"x_max":492,"o":"m 169 407 l 38 407 l 38 549 l 169 549 l 169 917 l 304 917 q 448 874 404 917 q 492 750 492 832 l 492 165 q 448 42 492 83 q 304 0 404 0 l 169 0 l 169 407 m 310 132 q 344 140 338 133 q 351 165 351 147 l 351 750 q 344 776 351 769 q 310 785 338 783 l 310 549 l 346 549 l 346 407 l 310 407 l 310 132 z "},"Ď":{"ha":397,"x_min":1,"x_max":360,"o":"m 38 917 l 172 917 q 316 874 272 917 q 360 750 360 832 l 360 165 q 316 42 360 83 q 172 0 272 0 l 38 0 l 38 917 m 178 132 q 213 140 206 133 q 219 165 219 147 l 219 750 q 213 776 219 769 q 178 785 206 783 l 178 132 z "},"Đ":{"ha":493,"x_min":38,"x_max":492,"o":"m 169 407 l 38 407 l 38 549 l 169 549 l 169 917 l 304 917 q 448 874 404 917 q 492 750 492 832 l 492 165 q 448 42 492 83 q 304 0 404 0 l 169 0 l 169 407 m 310 132 q 344 140 338 133 q 351 165 351 147 l 351 750 q 344 776 351 769 q 310 785 338 783 l 310 549 l 346 549 l 346 407 l 310 407 l 310 132 z "},"É":{"ha":356,"x_min":38,"x_max":333,"o":"m 38 917 l 318 917 l 318 785 l 178 785 l 178 540 l 296 540 l 296 410 l 178 410 l 178 131 l 318 131 l 318 0 l 38 0 l 38 917 z "},"Ě":{"ha":408,"x_min":36,"x_max":379,"o":"m 74 917 l 354 917 l 354 785 l 214 785 l 214 540 l 332 540 l 332 410 l 214 410 l 214 131 l 354 131 l 354 0 l 74 0 l 74 917 z "},"Ê":{"ha":408,"x_min":36,"x_max":379,"o":"m 75 917 l 356 917 l 356 785 l 215 785 l 215 540 l 333 540 l 333 410 l 215 410 l 215 131 l 356 131 l 356 0 l 75 0 l 75 917 z "},"Ë":{"ha":447,"x_min":33,"x_max":411,"o":"m 88 917 l 368 917 l 368 785 l 228 785 l 228 540 l 346 540 l 346 410 l 228 410 l 228 131 l 368 131 l 368 0 l 88 0 l 88 917 m 125 943 q 60 970 86 943 q 33 1033 33 997 q 60 1103 33 1075 q 125 1132 88 1132 q 192 1106 167 1132 q 217 1033 217 1079 q 189 971 217 999 q 125 943 161 943 m 228 1035 q 254 1106 228 1078 q 319 1133 281 1133 q 386 1107 361 1133 q 411 1035 411 1081 q 383 972 411 999 q 319 944 356 944 q 253 971 279 944 q 228 1035 228 997 z "},"Ė":{"ha":356,"x_min":38,"x_max":318,"o":"m 38 917 l 318 917 l 318 785 l 178 785 l 178 540 l 296 540 l 296 410 l 178 410 l 178 131 l 318 131 l 318 0 l 38 0 l 38 917 z "},"È":{"ha":381,"x_min":43,"x_max":344,"o":"m 64 917 l 344 917 l 344 785 l 204 785 l 204 540 l 322 540 l 322 410 l 204 410 l 204 131 l 344 131 l 344 0 l 64 0 l 64 917 z "},"Ē":{"ha":356,"x_min":38,"x_max":318,"o":"m 38 917 l 318 917 l 318 785 l 178 785 l 178 540 l 296 540 l 296 410 l 178 410 l 178 131 l 318 131 l 318 0 l 38 0 l 38 917 m 44 1122 l 315 1122 l 315 981 l 44 981 l 44 1122 z "},"Ę":{"ha":399,"x_min":38,"x_max":361,"o":"m 38 917 l 318 917 l 318 785 l 178 785 l 178 540 l 296 540 l 296 410 l 178 410 l 178 131 l 318 131 l 318 0 l 300 0 q 226 -31 247 -18 q 208 -57 204 -44 q 225 -67 213 -67 q 328 -31 251 -67 l 361 -147 q 221 -187 286 -187 q 131 -164 168 -187 q 79 -101 93 -140 q 72 -58 72 -78 q 85 0 72 -29 l 38 0 l 38 917 z "},"Ğ":{"ha":400,"x_min":-7,"x_max":390,"o":"m 199 -12 q 79 35 121 -12 q 38 158 38 82 l 38 757 q 79 881 38 833 q 199 929 121 929 q 319 881 276 929 q 363 756 363 833 l 363 594 l 221 594 l 221 750 q 217 784 221 774 q 199 794 213 794 q 181 784 185 794 q 178 750 178 774 l 178 163 q 181 129 178 139 q 199 119 185 119 q 217 129 213 119 q 221 163 221 139 l 221 410 l 199 410 l 199 540 l 363 540 l 363 157 q 319 34 363 81 q 199 -12 276 -12 z "},"Ģ":{"ha":400,"x_min":38,"x_max":363,"o":"m 199 -12 q 79 35 121 -12 q 38 158 38 82 l 38 757 q 79 881 38 833 q 199 929 121 929 q 319 881 276 929 q 363 756 363 833 l 363 594 l 221 594 l 221 750 q 217 784 221 774 q 199 794 213 794 q 181 784 185 794 q 178 750 178 774 l 178 163 q 181 129 178 139 q 199 119 185 119 q 217 129 213 119 q 221 163 221 139 l 221 410 l 199 410 l 199 540 l 363 540 l 363 157 q 319 34 363 81 q 199 -12 276 -12 z "},"Ġ":{"ha":400,"x_min":38,"x_max":363,"o":"m 199 -12 q 79 35 121 -12 q 38 158 38 82 l 38 757 q 79 881 38 833 q 199 929 121 929 q 319 881 276 929 q 363 756 363 833 l 363 594 l 221 594 l 221 750 q 217 784 221 774 q 199 794 213 794 q 181 784 185 794 q 178 750 178 774 l 178 163 q 181 129 178 139 q 199 119 185 119 q 217 129 213 119 q 221 163 221 139 l 221 410 l 199 410 l 199 540 l 363 540 l 363 157 q 319 34 363 81 q 199 -12 276 -12 z "},"Ħ":{"ha":557,"x_min":46,"x_max":511,"o":"m 100 606 l 46 606 l 46 736 l 100 736 l 100 917 l 240 917 l 240 736 l 315 736 l 315 917 l 458 917 l 458 736 l 511 736 l 511 606 l 458 606 l 458 0 l 315 0 l 315 410 l 240 410 l 240 0 l 100 0 l 100 606 m 315 540 l 315 606 l 240 606 l 240 540 l 315 540 z "},"Í":{"ha":331,"x_min":60,"x_max":293,"o":"m 69 917 l 210 917 l 210 0 l 69 0 l 69 917 z "},"Î":{"ha":417,"x_min":38,"x_max":381,"o":"m 138 917 l 278 917 l 278 0 l 138 0 l 138 917 z "},"Ï":{"ha":464,"x_min":38,"x_max":415,"o":"m 167 917 l 307 917 l 307 0 l 167 0 l 167 917 m 129 946 q 64 973 90 946 q 38 1036 38 1000 q 65 1106 38 1078 q 129 1135 92 1135 q 196 1108 171 1135 q 221 1036 221 1082 q 193 974 221 1001 q 129 946 165 946 m 232 1038 q 258 1108 232 1081 q 324 1136 285 1136 q 390 1110 365 1136 q 415 1038 415 1083 q 388 974 415 1001 q 324 947 360 947 q 258 974 283 947 q 232 1038 232 1000 z "},"İ":{"ha":258,"x_min":38,"x_max":221,"o":"m 53 917 l 193 917 l 193 0 l 53 0 l 53 917 m 129 944 q 64 972 90 944 q 38 1036 38 999 q 65 1099 38 1071 q 129 1128 92 1128 q 194 1101 168 1128 q 221 1036 221 1074 q 193 972 221 1000 q 129 944 165 944 z "},"Ì":{"ha":307,"x_min":38,"x_max":271,"o":"m 117 917 l 257 917 l 257 0 l 117 0 l 117 917 z "},"Ī":{"ha":432,"x_min":38,"x_max":396,"o":"m 135 917 l 275 917 l 275 0 l 135 0 l 135 917 m 38 1122 l 396 1122 l 396 981 l 38 981 l 38 1122 z "},"Į":{"ha":372,"x_min":18,"x_max":307,"o":"m 307 -149 q 167 -189 232 -189 q 76 -165 114 -189 q 25 -103 39 -142 q 18 -60 18 -82 q 44 23 18 -17 q 122 89 69 63 l 122 917 l 263 917 l 263 0 l 250 0 q 172 -32 193 -19 q 154 -58 150 -44 q 171 -68 158 -68 q 274 -32 197 -68 l 307 -149 z "},"Ķ":{"ha":468,"x_min":38,"x_max":431,"o":"m 38 917 l 179 917 l 176 549 l 269 917 l 413 917 l 236 340 l 431 0 l 283 0 l 178 203 l 178 0 l 38 0 l 38 917 z "},"Ĺ":{"ha":356,"x_min":38,"x_max":338,"o":"m 38 917 l 178 917 l 178 131 l 318 131 l 318 0 l 38 0 l 38 917 z "},"Ľ":{"ha":408,"x_min":46,"x_max":389,"o":"m 79 917 l 219 917 l 219 131 l 360 131 l 360 0 l 79 0 l 79 917 z "},"Ļ":{"ha":356,"x_min":35,"x_max":318,"o":"m 38 917 l 178 917 l 178 131 l 318 131 l 318 0 l 38 0 l 38 917 z "},"Ł":{"ha":501,"x_min":38,"x_max":465,"o":"m 172 439 l 86 408 l 38 542 l 172 590 l 172 917 l 313 917 l 313 642 l 417 679 l 465 546 l 313 490 l 313 131 l 453 131 l 453 0 l 172 0 l 172 439 z "},"Ń":{"ha":438,"x_min":38,"x_max":400,"o":"m 38 917 l 178 917 l 178 736 l 260 542 l 260 917 l 400 917 l 400 0 l 260 0 l 260 249 l 178 438 l 178 0 l 38 0 l 38 917 z "},"Ň":{"ha":438,"x_min":38,"x_max":400,"o":"m 38 917 l 178 917 l 178 736 l 260 542 l 260 917 l 400 917 l 400 0 l 260 0 l 260 249 l 178 438 l 178 0 l 38 0 l 38 917 z "},"Ņ":{"ha":438,"x_min":38,"x_max":400,"o":"m 38 917 l 178 917 l 178 736 l 260 542 l 260 917 l 400 917 l 400 0 l 260 0 l 260 249 l 178 438 l 178 0 l 38 0 l 38 917 z "},"Ñ":{"ha":497,"x_min":21,"x_max":474,"o":"m 72 917 l 213 917 l 213 736 l 294 542 l 294 917 l 435 917 l 435 0 l 294 0 l 294 249 l 213 438 l 213 0 l 72 0 l 72 917 z "},"Ŋ":{"ha":438,"x_min":38,"x_max":400,"o":"m 143 -47 q 167 -49 151 -49 q 260 28 260 -49 l 260 193 l 178 382 l 178 0 l 38 0 l 38 917 l 178 917 l 178 736 l 260 542 l 260 917 l 400 917 l 400 25 q 369 -85 400 -35 q 286 -167 339 -136 q 171 -197 233 -197 q 143 -196 153 -197 l 143 -47 z "},"Ó":{"ha":400,"x_min":38,"x_max":363,"o":"m 199 -4 q 79 43 121 -4 q 38 167 38 90 l 38 744 q 79 869 38 821 q 199 917 121 917 q 319 869 276 917 q 363 744 363 821 l 363 167 q 319 44 363 92 q 199 -4 276 -4 m 178 175 q 181 140 178 150 q 199 129 185 129 q 217 140 213 129 q 221 175 221 150 l 221 739 q 217 771 221 761 q 199 781 213 781 q 181 771 185 781 q 178 739 178 761 l 178 175 z "},"Ô":{"ha":400,"x_min":21,"x_max":364,"o":"m 199 -4 q 79 43 121 -4 q 38 167 38 90 l 38 744 q 79 869 38 821 q 199 917 121 917 q 319 869 276 917 q 363 744 363 821 l 363 167 q 319 44 363 92 q 199 -4 276 -4 m 178 175 q 181 140 178 150 q 199 129 185 129 q 217 140 213 129 q 221 175 221 150 l 221 739 q 217 771 221 761 q 199 781 213 781 q 181 771 185 781 q 178 739 178 761 l 178 175 z "},"Ö":{"ha":400,"x_min":6,"x_max":383,"o":"m 199 -4 q 79 43 121 -4 q 38 167 38 90 l 38 744 q 79 869 38 821 q 199 917 121 917 q 319 869 276 917 q 363 744 363 821 l 363 167 q 319 44 363 92 q 199 -4 276 -4 m 178 175 q 181 140 178 150 q 199 129 185 129 q 217 140 213 129 q 221 175 221 150 l 221 739 q 217 771 221 761 q 199 781 213 781 q 181 771 185 781 q 178 739 178 761 l 178 175 m 97 942 q 32 969 58 942 q 6 1032 6 996 q 33 1102 6 1074 q 97 1131 60 1131 q 164 1104 139 1131 q 189 1032 189 1078 q 161 969 189 997 q 97 942 133 942 m 200 1033 q 226 1104 200 1076 q 292 1132 253 1132 q 358 1106 333 1132 q 383 1033 383 1079 q 356 970 383 997 q 292 943 328 943 q 226 969 251 943 q 200 1033 200 996 z "},"Ò":{"ha":400,"x_min":38,"x_max":363,"o":"m 199 -4 q 79 43 121 -4 q 38 167 38 90 l 38 744 q 79 869 38 821 q 199 917 121 917 q 319 869 276 917 q 363 744 363 821 l 363 167 q 319 44 363 92 q 199 -4 276 -4 m 178 175 q 181 140 178 150 q 199 129 185 129 q 217 140 213 129 q 221 175 221 150 l 221 739 q 217 771 221 761 q 199 781 213 781 q 181 771 185 781 q 178 739 178 761 l 178 175 z "},"Ő":{"ha":492,"x_min":47,"x_max":429,"o":"m 208 -4 q 89 43 131 -4 q 47 167 47 90 l 47 744 q 89 869 47 821 q 208 917 131 917 q 329 869 286 917 q 372 744 372 821 l 372 167 q 329 44 372 92 q 208 -4 286 -4 m 188 175 q 191 140 188 150 q 208 129 194 129 q 226 140 222 129 q 231 175 231 150 l 231 739 q 226 771 231 761 q 208 781 222 781 q 191 771 194 781 q 188 739 188 761 l 188 175 z "},"Ō":{"ha":418,"x_min":29,"x_max":388,"o":"m 201 -4 q 82 43 124 -4 q 40 167 40 90 l 40 744 q 82 869 40 821 q 201 917 124 917 q 322 869 279 917 q 365 744 365 821 l 365 167 q 322 44 365 92 q 201 -4 279 -4 m 181 175 q 184 140 181 150 q 201 129 188 129 q 219 140 215 129 q 224 175 224 150 l 224 739 q 219 771 224 761 q 201 781 215 781 q 184 771 188 781 q 181 739 181 761 l 181 175 m 29 1121 l 388 1121 l 388 979 l 29 979 l 29 1121 z "},"Ø":{"ha":606,"x_min":38,"x_max":569,"o":"m 288 -4 q 217 8 249 -4 l 183 -87 l 38 -87 l 126 168 l 126 744 q 168 869 126 821 q 288 917 210 917 q 379 893 340 917 l 424 1022 l 569 1022 l 451 683 l 451 167 q 408 44 451 92 q 288 -4 365 -4 m 310 694 l 310 739 q 306 771 310 761 q 288 781 301 781 q 270 771 274 781 q 267 739 267 761 l 267 571 l 310 694 m 268 154 q 288 129 271 129 q 306 140 301 129 q 310 175 310 150 l 310 276 l 268 154 z "},"Õ":{"ha":400,"x_min":-12,"x_max":394,"o":"m 199 -4 q 79 43 121 -4 q 38 167 38 90 l 38 744 q 79 869 38 821 q 199 917 121 917 q 319 869 276 917 q 363 744 363 821 l 363 167 q 319 44 363 92 q 199 -4 276 -4 m -12 956 q 31 1064 -10 1018 q 128 1110 71 1110 q 167 1104 150 1110 l 218 1088 q 236 1083 235 1083 q 275 1119 261 1083 l 394 1090 q 342 992 382 1031 q 257 954 303 954 q 221 961 242 954 l 178 975 q 147 982 160 982 q 110 944 122 982 l -12 956 m 178 175 q 181 140 178 150 q 199 129 185 129 q 217 140 213 129 q 221 175 221 150 l 221 739 q 217 771 221 761 q 199 781 213 781 q 181 771 185 781 q 178 739 178 761 l 178 175 z "},"Œ":{"ha":543,"x_min":38,"x_max":506,"o":"m 199 -4 q 79 43 121 -4 q 38 167 38 90 l 38 744 q 79 869 38 821 q 199 917 121 917 q 225 915 217 917 l 225 917 l 506 917 l 506 785 l 365 785 l 365 540 l 483 540 l 483 410 l 365 410 l 365 131 l 506 131 l 506 0 l 240 0 q 199 -4 222 -4 m 178 175 q 181 140 178 150 q 199 129 185 129 q 217 140 213 129 q 221 175 221 150 l 221 739 q 217 771 221 761 q 199 781 213 781 q 181 771 185 781 q 178 739 178 761 l 178 175 z "},"Þ":{"ha":400,"x_min":38,"x_max":363,"o":"m 38 917 l 178 917 l 178 814 l 199 814 q 319 767 276 815 q 363 642 363 718 l 363 314 q 319 191 363 239 q 199 143 276 143 l 178 143 l 178 0 l 38 0 l 38 917 m 199 276 q 217 285 213 276 q 221 317 221 293 l 221 640 q 217 670 221 663 q 199 678 214 678 l 178 678 l 178 276 l 199 276 z "},"Ŕ":{"ha":385,"x_min":38,"x_max":349,"o":"m 38 917 l 174 917 q 303 875 258 917 q 349 768 349 833 l 349 560 q 322 474 349 508 q 349 374 349 443 l 349 0 l 215 0 l 215 374 q 209 402 215 394 q 190 410 203 410 l 178 410 l 178 0 l 38 0 l 38 917 m 178 536 q 209 540 203 536 q 215 560 215 543 l 215 781 q 208 798 215 794 q 178 801 201 801 l 178 536 z "},"Ř":{"ha":385,"x_min":-10,"x_max":349,"o":"m 38 917 l 174 917 q 303 875 258 917 q 349 768 349 833 l 349 560 q 322 474 349 508 q 349 374 349 443 l 349 0 l 215 0 l 215 374 q 209 402 215 394 q 190 410 203 410 l 178 410 l 178 0 l 38 0 l 38 917 m 178 536 q 209 540 203 536 q 215 560 215 543 l 215 781 q 208 798 215 794 q 178 801 201 801 l 178 536 z "},"Ŗ":{"ha":385,"x_min":38,"x_max":349,"o":"m 38 917 l 174 917 q 303 875 258 917 q 349 768 349 833 l 349 560 q 322 474 349 508 q 349 374 349 443 l 349 0 l 215 0 l 215 374 q 209 402 215 394 q 190 410 203 410 l 178 410 l 178 0 l 38 0 l 38 917 m 178 536 q 209 540 203 536 q 215 560 215 543 l 215 781 q 208 798 215 794 q 178 801 201 801 l 178 536 z "},"Ś":{"ha":401,"x_min":38,"x_max":364,"o":"m 200 -12 q 80 35 122 -12 q 38 158 38 82 l 38 317 l 178 317 l 178 161 q 182 128 178 138 q 200 119 186 119 q 218 128 214 119 q 222 161 222 138 l 222 354 q 216 387 222 376 q 189 406 210 397 q 77 478 115 438 q 39 590 39 519 l 39 756 q 81 881 39 832 q 200 929 122 929 q 321 881 278 929 q 364 756 364 833 l 364 594 l 222 594 l 222 756 q 218 786 222 778 q 200 794 214 794 q 182 786 186 794 q 178 756 178 778 l 178 590 q 185 561 178 571 q 208 546 192 551 q 320 472 278 519 q 363 354 363 425 l 363 158 q 320 35 363 82 q 200 -12 278 -12 z "},"Š":{"ha":401,"x_min":19,"x_max":364,"o":"m 200 -12 q 80 35 122 -12 q 38 158 38 82 l 38 317 l 178 317 l 178 161 q 182 128 178 138 q 200 119 186 119 q 218 128 214 119 q 222 161 222 138 l 222 354 q 216 387 222 376 q 189 406 210 397 q 77 478 115 438 q 39 590 39 519 l 39 756 q 81 881 39 832 q 200 929 122 929 q 321 881 278 929 q 364 756 364 833 l 364 594 l 222 594 l 222 756 q 218 786 222 778 q 200 794 214 794 q 182 786 186 794 q 178 756 178 778 l 178 590 q 185 561 178 571 q 208 546 192 551 q 320 472 278 519 q 363 354 363 425 l 363 158 q 320 35 363 82 q 200 -12 278 -12 z "},"Ş":{"ha":401,"x_min":24,"x_max":364,"o":"m 131 -168 q 172 -165 161 -168 q 186 -150 182 -161 q 164 -116 196 -132 q 60 -83 132 -100 l 113 8 q 57 69 76 31 q 38 158 38 108 l 38 317 l 178 317 l 178 161 q 182 128 178 138 q 200 119 186 119 q 218 128 214 119 q 222 161 222 138 l 222 354 q 216 387 222 376 q 189 406 210 397 q 77 478 115 438 q 39 590 39 519 l 39 756 q 81 881 39 832 q 200 929 122 929 q 321 881 278 929 q 364 756 364 833 l 364 594 l 222 594 l 222 756 q 218 786 222 778 q 200 794 214 794 q 182 786 186 794 q 178 756 178 778 l 178 590 q 185 561 178 571 q 208 546 192 551 q 320 472 278 519 q 363 354 363 425 l 363 158 q 334 52 363 96 q 251 -6 306 8 l 243 -24 q 312 -76 289 -44 q 335 -143 335 -107 q 328 -185 335 -161 q 250 -269 310 -243 q 110 -296 190 -296 q 24 -289 69 -296 l 24 -165 l 131 -168 z "},"Ș":{"ha":401,"x_min":38,"x_max":364,"o":"m 200 -12 q 80 35 122 -12 q 38 158 38 82 l 38 317 l 178 317 l 178 161 q 182 128 178 138 q 200 119 186 119 q 218 128 214 119 q 222 161 222 138 l 222 354 q 216 387 222 376 q 189 406 210 397 q 77 478 115 438 q 39 590 39 519 l 39 756 q 81 881 39 832 q 200 929 122 929 q 321 881 278 929 q 364 756 364 833 l 364 594 l 222 594 l 222 756 q 218 786 222 778 q 200 794 214 794 q 182 786 186 794 q 178 756 178 778 l 178 590 q 185 561 178 571 q 208 546 192 551 q 320 472 278 519 q 363 354 363 425 l 363 158 q 320 35 363 82 q 200 -12 278 -12 z "},"ẞ":{"ha":433,"x_min":38,"x_max":433,"o":"m 38 917 l 433 917 l 385 553 q 375 517 381 529 q 351 490 369 504 q 397 397 397 461 l 397 160 q 353 39 397 78 q 208 0 310 0 l 208 129 q 249 135 240 131 q 257 160 257 140 l 257 385 q 247 404 257 399 q 215 411 238 410 l 215 538 q 240 547 233 539 q 249 569 246 554 l 274 785 l 178 785 l 178 0 l 38 0 l 38 917 z "},"Ŧ":{"ha":476,"x_min":38,"x_max":440,"o":"m 163 440 l 38 440 l 38 582 l 163 582 l 163 788 l 79 788 l 79 917 l 386 917 l 386 788 l 303 788 l 303 582 l 440 582 l 440 440 l 303 440 l 303 0 l 163 0 l 163 440 z "},"Ť":{"ha":381,"x_min":6,"x_max":349,"o":"m 121 788 l 38 788 l 38 917 l 344 917 l 344 788 l 261 788 l 261 0 l 121 0 l 121 788 z "},"Ţ":{"ha":381,"x_min":-4,"x_max":344,"o":"m 103 -132 q 144 -128 133 -132 q 158 -114 154 -125 q 136 -80 168 -96 q 32 -47 104 -64 l 121 106 l 121 788 l 38 788 l 38 917 l 344 917 l 344 788 l 261 788 l 261 106 l 263 106 l 261 103 l 261 0 l 239 0 q 307 -107 307 -42 q 300 -149 307 -125 q 222 -233 282 -207 q 82 -260 163 -260 q -4 -253 42 -260 l -4 -129 l 103 -132 z "},"Ț":{"ha":381,"x_min":38,"x_max":344,"o":"m 121 788 l 38 788 l 38 917 l 344 917 l 344 788 l 261 788 l 261 0 l 121 0 l 121 788 z "},"Ú":{"ha":403,"x_min":38,"x_max":365,"o":"m 200 -12 q 81 40 124 -12 q 38 171 38 93 l 38 917 l 178 917 l 178 171 q 182 133 178 144 q 200 121 186 121 q 219 133 214 121 q 224 171 224 144 l 224 917 l 365 917 l 365 171 q 321 41 365 94 q 200 -12 276 -12 z "},"Û":{"ha":403,"x_min":28,"x_max":371,"o":"m 200 -12 q 81 40 124 -12 q 38 171 38 93 l 38 917 l 178 917 l 178 171 q 182 133 178 144 q 200 121 186 121 q 219 133 214 121 q 224 171 224 144 l 224 917 l 365 917 l 365 171 q 321 41 365 94 q 200 -12 276 -12 z "},"Ü":{"ha":403,"x_min":14,"x_max":392,"o":"m 200 -12 q 81 40 124 -12 q 38 171 38 93 l 38 917 l 178 917 l 178 171 q 182 133 178 144 q 200 121 186 121 q 219 133 214 121 q 224 171 224 144 l 224 917 l 365 917 l 365 171 q 321 41 365 94 q 200 -12 276 -12 m 106 947 q 40 974 67 947 q 14 1038 14 1001 q 41 1108 14 1079 q 106 1136 68 1136 q 172 1110 147 1136 q 197 1038 197 1083 q 169 975 197 1003 q 106 947 142 947 m 208 1039 q 235 1110 208 1082 q 300 1138 261 1138 q 367 1111 342 1138 q 392 1039 392 1085 q 364 976 392 1003 q 300 949 336 949 q 234 975 260 949 q 208 1039 208 1001 z "},"Ù":{"ha":403,"x_min":38,"x_max":365,"o":"m 200 -12 q 81 40 124 -12 q 38 171 38 93 l 38 917 l 178 917 l 178 171 q 182 133 178 144 q 200 121 186 121 q 219 133 214 121 q 224 171 224 144 l 224 917 l 365 917 l 365 171 q 321 41 365 94 q 200 -12 276 -12 z "},"Ű":{"ha":493,"x_min":49,"x_max":439,"o":"m 211 -12 q 92 40 135 -12 q 49 171 49 93 l 49 917 l 189 917 l 189 171 q 193 133 189 144 q 211 121 197 121 q 230 133 225 121 q 235 171 235 144 l 235 917 l 376 917 l 376 171 q 332 41 376 94 q 211 -12 288 -12 z "},"Ū":{"ha":403,"x_min":33,"x_max":392,"o":"m 200 -12 q 81 40 124 -12 q 38 171 38 93 l 38 917 l 178 917 l 178 171 q 182 133 178 144 q 200 121 186 121 q 219 133 214 121 q 224 171 224 144 l 224 917 l 365 917 l 365 171 q 321 41 365 94 q 200 -12 276 -12 m 33 1126 l 392 1126 l 392 985 l 33 985 l 33 1126 z "},"Ų":{"ha":403,"x_min":24,"x_max":365,"o":"m 313 -151 q 172 -192 238 -192 q 82 -168 119 -192 q 31 -106 44 -144 q 24 -62 24 -82 q 74 49 24 0 q 38 171 38 100 l 38 917 l 178 917 l 178 171 q 182 133 178 144 q 200 121 186 121 q 219 133 214 121 q 224 171 224 144 l 224 917 l 365 917 l 365 171 q 332 54 365 104 q 239 -8 299 4 q 174 -37 192 -25 q 160 -61 156 -49 q 176 -71 164 -71 q 279 -35 203 -71 l 313 -151 z "},"Ů":{"ha":403,"x_min":38,"x_max":365,"o":"m 200 -12 q 81 40 124 -12 q 38 171 38 93 l 38 917 l 178 917 l 178 171 q 182 133 178 144 q 200 121 186 121 q 219 133 214 121 q 224 171 224 144 l 224 917 l 365 917 l 365 171 q 321 41 365 94 q 200 -12 276 -12 z "},"Ẃ":{"ha":621,"x_min":38,"x_max":583,"o":"m 38 917 l 175 917 l 229 507 l 261 644 l 360 644 l 393 506 l 446 917 l 583 917 l 465 0 l 335 0 l 310 325 l 285 0 l 154 0 l 38 917 z "},"Ŵ":{"ha":621,"x_min":38,"x_max":583,"o":"m 38 917 l 175 917 l 229 507 l 261 644 l 360 644 l 393 506 l 446 917 l 583 917 l 465 0 l 335 0 l 310 325 l 285 0 l 154 0 l 38 917 z "},"Ẅ":{"ha":621,"x_min":38,"x_max":583,"o":"m 38 917 l 175 917 l 229 507 l 261 644 l 360 644 l 393 506 l 446 917 l 583 917 l 465 0 l 335 0 l 310 325 l 285 0 l 154 0 l 38 917 m 207 938 q 142 965 168 938 q 115 1028 115 992 q 142 1098 115 1069 q 207 1126 169 1126 q 274 1100 249 1126 q 299 1028 299 1074 q 271 965 299 993 q 207 938 243 938 m 310 1029 q 336 1100 310 1072 q 401 1128 363 1128 q 468 1101 443 1128 q 493 1029 493 1075 q 465 966 493 993 q 401 939 438 939 q 335 965 361 939 q 310 1029 310 992 z "},"Ẁ":{"ha":621,"x_min":38,"x_max":583,"o":"m 38 917 l 175 917 l 229 507 l 261 644 l 360 644 l 393 506 l 446 917 l 583 917 l 465 0 l 335 0 l 310 325 l 285 0 l 154 0 l 38 917 z "},"Ý":{"ha":440,"x_min":38,"x_max":403,"o":"m 150 432 l 38 917 l 181 917 l 219 729 l 260 917 l 403 917 l 290 432 l 290 0 l 150 0 l 150 432 z "},"Ŷ":{"ha":440,"x_min":38,"x_max":403,"o":"m 150 432 l 38 917 l 181 917 l 219 729 l 260 917 l 403 917 l 290 432 l 290 0 l 150 0 l 150 432 z "},"Ÿ":{"ha":440,"x_min":25,"x_max":403,"o":"m 150 432 l 38 917 l 181 917 l 219 729 l 260 917 l 403 917 l 290 432 l 290 0 l 150 0 l 150 432 m 117 951 q 51 978 78 951 q 25 1042 25 1006 q 52 1112 25 1083 q 117 1140 79 1140 q 183 1114 158 1140 q 208 1042 208 1088 q 181 979 208 1007 q 117 951 153 951 m 219 1043 q 246 1114 219 1086 q 311 1142 272 1142 q 378 1115 353 1142 q 403 1043 403 1089 q 375 980 403 1007 q 311 953 347 953 q 245 979 271 953 q 219 1043 219 1006 z "},"Ỳ":{"ha":440,"x_min":38,"x_max":403,"o":"m 150 432 l 38 917 l 181 917 l 219 729 l 260 917 l 403 917 l 290 432 l 290 0 l 150 0 l 150 432 z "},"Ź":{"ha":369,"x_min":38,"x_max":339,"o":"m 38 110 l 189 785 l 38 785 l 38 917 l 332 917 l 332 807 l 182 132 l 332 132 l 332 0 l 38 0 l 38 110 z "},"Ž":{"ha":369,"x_min":6,"x_max":349,"o":"m 38 110 l 189 785 l 38 785 l 38 917 l 332 917 l 332 807 l 182 132 l 332 132 l 332 0 l 38 0 l 38 110 z "},"Ż":{"ha":369,"x_min":38,"x_max":332,"o":"m 38 110 l 189 785 l 38 785 l 38 917 l 332 917 l 332 807 l 182 132 l 332 132 l 332 0 l 38 0 l 38 110 z "},"á":{"ha":400,"x_min":38,"x_max":363,"o":"m 199 -14 q 79 33 121 -14 q 38 157 38 81 l 38 322 q 79 447 38 399 q 199 494 121 494 l 221 494 l 221 542 q 217 573 221 564 q 199 582 213 582 q 181 573 185 582 q 178 542 178 564 l 178 514 l 38 514 l 38 546 q 79 670 38 622 q 199 718 121 718 q 319 670 276 718 q 363 546 363 622 l 363 157 q 319 34 363 82 q 199 -14 276 -14 m 178 160 q 182 128 178 138 q 199 119 186 119 q 217 128 213 119 q 221 160 221 138 l 221 358 l 199 358 q 181 351 185 358 q 178 321 178 343 l 178 160 z "},"ă":{"ha":472,"x_min":38,"x_max":435,"o":"m 226 -14 q 107 33 149 -14 q 65 157 65 81 l 65 322 q 107 447 65 399 q 226 494 149 494 l 249 494 l 249 542 q 244 573 249 564 q 226 582 240 582 q 209 573 213 582 q 206 542 206 564 l 206 514 l 65 514 l 65 546 q 107 670 65 622 q 226 718 149 718 q 347 670 304 718 q 390 546 390 622 l 390 157 q 347 34 390 82 q 226 -14 304 -14 m 206 160 q 210 128 206 138 q 226 119 214 119 q 244 128 240 119 q 249 160 249 138 l 249 358 l 226 358 q 209 351 213 358 q 206 321 206 343 l 206 160 z "},"â":{"ha":400,"x_min":17,"x_max":363,"o":"m 199 -14 q 79 33 121 -14 q 38 157 38 81 l 38 322 q 79 447 38 399 q 199 494 121 494 l 221 494 l 221 542 q 217 573 221 564 q 199 582 213 582 q 181 573 185 582 q 178 542 178 564 l 178 514 l 38 514 l 38 546 q 79 670 38 622 q 199 718 121 718 q 319 670 276 718 q 363 546 363 622 l 363 157 q 319 34 363 82 q 199 -14 276 -14 m 178 160 q 182 128 178 138 q 199 119 186 119 q 217 128 213 119 q 221 160 221 138 l 221 358 l 199 358 q 181 351 185 358 q 178 321 178 343 l 178 160 z "},"ä":{"ha":400,"x_min":1,"x_max":379,"o":"m 199 -14 q 79 33 121 -14 q 38 157 38 81 l 38 322 q 79 447 38 399 q 199 494 121 494 l 221 494 l 221 542 q 217 573 221 564 q 199 582 213 582 q 181 573 185 582 q 178 542 178 564 l 178 514 l 38 514 l 38 546 q 79 670 38 622 q 199 718 121 718 q 319 670 276 718 q 363 546 363 622 l 363 157 q 319 34 363 82 q 199 -14 276 -14 m 178 160 q 182 128 178 138 q 199 119 186 119 q 217 128 213 119 q 221 160 221 138 l 221 358 l 199 358 q 181 351 185 358 q 178 321 178 343 l 178 160 m 93 746 q 28 773 54 746 q 1 836 1 800 q 28 906 1 878 q 93 935 56 935 q 160 908 135 935 q 185 836 185 882 q 157 774 185 801 q 93 746 129 746 m 196 838 q 222 908 196 881 q 288 936 249 936 q 354 910 329 936 q 379 838 379 883 q 351 774 379 801 q 288 747 324 747 q 222 774 247 747 q 196 838 196 800 z "},"à":{"ha":400,"x_min":35,"x_max":363,"o":"m 199 -14 q 79 33 121 -14 q 38 157 38 81 l 38 322 q 79 447 38 399 q 199 494 121 494 l 221 494 l 221 542 q 217 573 221 564 q 199 582 213 582 q 181 573 185 582 q 178 542 178 564 l 178 514 l 38 514 l 38 546 q 79 670 38 622 q 199 718 121 718 q 319 670 276 718 q 363 546 363 622 l 363 157 q 319 34 363 82 q 199 -14 276 -14 m 178 160 q 182 128 178 138 q 199 119 186 119 q 217 128 213 119 q 221 160 221 138 l 221 358 l 199 358 q 181 351 185 358 q 178 321 178 343 l 178 160 z "},"ā":{"ha":400,"x_min":22,"x_max":381,"o":"m 199 -14 q 79 33 121 -14 q 38 157 38 81 l 38 322 q 79 447 38 399 q 199 494 121 494 l 221 494 l 221 542 q 217 573 221 564 q 199 582 213 582 q 181 573 185 582 q 178 542 178 564 l 178 514 l 38 514 l 38 546 q 79 670 38 622 q 199 718 121 718 q 319 670 276 718 q 363 546 363 622 l 363 157 q 319 34 363 82 q 199 -14 276 -14 m 178 160 q 182 128 178 138 q 199 119 186 119 q 217 128 213 119 q 221 160 221 138 l 221 358 l 199 358 q 181 351 185 358 q 178 321 178 343 l 178 160 m 22 925 l 381 925 l 381 783 l 22 783 l 22 925 z "},"ą":{"ha":400,"x_min":38,"x_max":363,"o":"m 340 -143 q 200 -183 265 -183 q 110 -160 147 -183 q 58 -97 72 -136 q 51 -54 51 -74 q 81 32 51 -10 q 38 157 38 76 l 38 322 q 79 447 38 399 q 199 494 121 494 l 221 494 l 221 542 q 217 573 221 564 q 199 582 213 582 q 181 573 185 582 q 178 542 178 564 l 178 514 l 38 514 l 38 546 q 79 670 38 622 q 199 718 121 718 q 319 670 276 718 q 363 546 363 622 l 363 157 q 344 70 363 108 q 292 10 326 32 l 292 8 l 282 6 q 240 -10 261 -6 q 197 -32 210 -22 q 188 -53 185 -42 q 204 -62 192 -62 q 307 -26 231 -62 l 340 -143 m 178 160 q 182 128 178 138 q 199 119 186 119 q 217 128 213 119 q 221 160 221 138 l 221 358 l 199 358 q 181 351 185 358 q 178 321 178 343 l 178 160 z "},"å":{"ha":400,"x_min":38,"x_max":363,"o":"m 199 -14 q 79 33 121 -14 q 38 157 38 81 l 38 322 q 79 447 38 399 q 199 494 121 494 l 221 494 l 221 542 q 217 573 221 564 q 199 582 213 582 q 181 573 185 582 q 178 542 178 564 l 178 514 l 38 514 l 38 546 q 79 670 38 622 q 199 718 121 718 q 319 670 276 718 q 363 546 363 622 l 363 157 q 319 34 363 82 q 199 -14 276 -14 m 178 160 q 182 128 178 138 q 199 119 186 119 q 217 128 213 119 q 221 160 221 138 l 221 358 l 199 358 q 181 351 185 358 q 178 321 178 343 l 178 160 z "},"ã":{"ha":400,"x_min":1,"x_max":372,"o":"m 199 -14 q 79 33 121 -14 q 38 157 38 81 l 38 322 q 79 447 38 399 q 199 494 121 494 l 221 494 l 221 542 q 217 573 221 564 q 199 582 213 582 q 181 573 185 582 q 178 542 178 564 l 178 514 l 38 514 l 38 546 q 79 670 38 622 q 199 718 121 718 q 319 670 276 718 q 363 546 363 622 l 363 157 q 319 34 363 82 q 199 -14 276 -14 m 1 757 q 42 857 4 815 q 131 899 79 899 q 165 893 149 899 l 213 878 q 231 874 221 874 q 264 906 253 874 l 372 881 q 326 790 363 825 q 247 756 290 756 q 214 761 229 756 l 175 775 q 147 782 157 782 q 113 747 126 782 l 1 757 m 178 160 q 182 128 178 138 q 199 119 186 119 q 217 128 213 119 q 221 160 221 138 l 221 358 l 199 358 q 181 351 185 358 q 178 321 178 343 l 178 160 z "},"æ":{"ha":593,"x_min":38,"x_max":556,"o":"m 197 -14 q 79 33 121 -14 q 38 151 38 79 l 38 313 q 79 433 38 388 q 197 479 121 479 l 219 479 l 219 525 q 215 555 219 546 q 197 564 211 564 q 180 555 183 564 q 176 525 176 546 l 176 499 l 38 499 l 38 529 q 79 650 38 604 q 197 696 121 696 q 281 678 242 696 q 392 717 322 717 q 513 669 469 717 q 556 544 556 621 l 556 449 q 513 328 556 375 q 392 282 469 282 l 371 282 l 371 160 q 374 127 371 136 q 392 118 378 118 q 410 127 407 118 q 414 160 414 136 l 414 238 l 556 238 l 556 157 q 513 33 556 81 q 392 -14 469 -14 q 294 13 335 -14 q 197 -14 256 -14 m 176 154 q 181 124 176 133 q 197 115 185 115 q 215 124 211 115 q 219 154 219 133 l 219 347 l 197 347 q 180 340 183 347 q 176 311 176 332 l 176 154 m 392 418 q 410 426 407 418 q 414 456 414 433 l 414 543 q 410 572 414 563 q 392 581 406 581 q 374 572 378 581 q 371 543 371 563 l 371 418 l 392 418 z "},"ć":{"ha":400,"x_min":38,"x_max":363,"o":"m 199 -12 q 79 35 121 -12 q 38 158 38 82 l 38 546 q 79 670 38 622 q 199 718 121 718 q 319 670 276 718 q 363 546 363 622 l 363 425 l 221 425 l 221 540 q 217 572 221 563 q 199 582 213 582 q 181 572 185 582 q 178 540 178 563 l 178 165 q 181 130 178 140 q 199 119 185 119 q 217 130 213 119 q 221 165 221 140 l 221 275 l 363 275 l 363 158 q 319 35 363 82 q 199 -12 276 -12 z "},"č":{"ha":400,"x_min":28,"x_max":371,"o":"m 199 -12 q 79 35 121 -12 q 38 158 38 82 l 38 546 q 79 670 38 622 q 199 718 121 718 q 319 670 276 718 q 363 546 363 622 l 363 425 l 221 425 l 221 540 q 217 572 221 563 q 199 582 213 582 q 181 572 185 582 q 178 540 178 563 l 178 165 q 181 130 178 140 q 199 119 185 119 q 217 130 213 119 q 221 165 221 140 l 221 275 l 363 275 l 363 158 q 319 35 363 82 q 199 -12 276 -12 z "},"ç":{"ha":400,"x_min":24,"x_max":363,"o":"m 131 -157 q 172 -153 161 -157 q 186 -139 182 -150 q 164 -105 196 -121 q 60 -72 132 -89 l 108 11 q 56 71 74 33 q 38 158 38 108 l 38 546 q 79 670 38 622 q 199 718 121 718 q 319 670 276 718 q 363 546 363 622 l 363 425 l 221 425 l 221 540 q 217 572 221 563 q 199 582 213 582 q 181 572 185 582 q 178 540 178 563 l 178 165 q 181 130 178 140 q 199 119 185 119 q 217 130 213 119 q 221 165 221 140 l 221 275 l 363 275 l 363 158 q 333 51 363 94 q 246 -7 303 7 l 243 -12 q 312 -65 289 -33 q 335 -132 335 -96 q 328 -174 335 -150 q 250 -258 310 -232 q 110 -285 190 -285 q 24 -278 69 -285 l 24 -154 l 131 -157 z "},"ċ":{"ha":400,"x_min":38,"x_max":363,"o":"m 199 -12 q 79 35 121 -12 q 38 158 38 82 l 38 546 q 79 670 38 622 q 199 718 121 718 q 319 670 276 718 q 363 546 363 622 l 363 425 l 221 425 l 221 540 q 217 572 221 563 q 199 582 213 582 q 181 572 185 582 q 178 540 178 563 l 178 165 q 181 130 178 140 q 199 119 185 119 q 217 130 213 119 q 221 165 221 140 l 221 275 l 363 275 l 363 158 q 319 35 363 82 q 199 -12 276 -12 z "},"ð":{"ha":500,"x_min":38,"x_max":492,"o":"m 169 407 l 38 407 l 38 549 l 169 549 l 169 917 l 304 917 q 448 874 404 917 q 492 750 492 832 l 492 165 q 448 42 492 83 q 304 0 404 0 l 169 0 l 169 407 m 310 132 q 344 140 338 133 q 351 165 351 147 l 351 750 q 344 776 351 769 q 310 785 338 783 l 310 549 l 346 549 l 346 407 l 310 407 l 310 132 z "},"ď":{"ha":400,"x_min":22,"x_max":365,"o":"m 200 -14 q 81 34 124 -14 q 38 157 38 82 l 38 546 q 81 670 38 622 q 200 718 124 718 q 221 715 210 718 l 221 917 l 363 917 l 363 157 q 320 33 363 81 q 200 -14 278 -14 m 178 160 q 182 130 178 140 q 200 119 186 119 q 218 130 214 119 q 222 160 222 140 l 221 553 q 200 582 221 582 q 182 572 186 582 q 178 544 178 563 l 178 160 z "},"đ":{"ha":493,"x_min":38,"x_max":492,"o":"m 169 407 l 38 407 l 38 549 l 169 549 l 169 917 l 304 917 q 448 874 404 917 q 492 750 492 832 l 492 165 q 448 42 492 83 q 304 0 404 0 l 169 0 l 169 407 m 310 132 q 344 140 338 133 q 351 165 351 147 l 351 750 q 344 776 351 769 q 310 785 338 783 l 310 549 l 346 549 l 346 407 l 310 407 l 310 132 z "},"é":{"ha":400,"x_min":38,"x_max":363,"o":"m 199 -12 q 79 35 121 -12 q 38 158 38 82 l 38 546 q 79 670 38 622 q 199 718 121 718 q 319 670 276 718 q 363 546 363 622 l 363 450 q 319 330 363 376 q 199 283 276 283 l 178 283 l 178 161 q 181 128 178 138 q 199 119 185 119 q 217 128 214 119 q 221 161 221 138 l 221 239 l 363 239 l 363 158 q 319 35 363 82 q 199 -12 276 -12 m 199 419 q 217 427 214 419 q 221 457 221 435 l 221 544 q 217 573 221 564 q 199 582 213 582 q 181 573 185 582 q 178 544 178 564 l 178 419 l 199 419 z "},"ě":{"ha":400,"x_min":28,"x_max":371,"o":"m 199 -12 q 79 35 121 -12 q 38 158 38 82 l 38 546 q 79 670 38 622 q 199 718 121 718 q 319 670 276 718 q 363 546 363 622 l 363 450 q 319 330 363 376 q 199 283 276 283 l 178 283 l 178 161 q 181 128 178 138 q 199 119 185 119 q 217 128 214 119 q 221 161 221 138 l 221 239 l 363 239 l 363 158 q 319 35 363 82 q 199 -12 276 -12 m 199 419 q 217 427 214 419 q 221 457 221 435 l 221 544 q 217 573 221 564 q 199 582 213 582 q 181 573 185 582 q 178 544 178 564 l 178 419 l 199 419 z "},"ê":{"ha":400,"x_min":25,"x_max":368,"o":"m 199 -12 q 79 35 121 -12 q 38 158 38 82 l 38 546 q 79 670 38 622 q 199 718 121 718 q 319 670 276 718 q 363 546 363 622 l 363 450 q 319 330 363 376 q 199 283 276 283 l 178 283 l 178 161 q 181 128 178 138 q 199 119 185 119 q 217 128 214 119 q 221 161 221 138 l 221 239 l 363 239 l 363 158 q 319 35 363 82 q 199 -12 276 -12 m 199 419 q 217 427 214 419 q 221 457 221 435 l 221 544 q 217 573 221 564 q 199 582 213 582 q 181 573 185 582 q 178 544 178 564 l 178 419 l 199 419 z "},"ë":{"ha":400,"x_min":10,"x_max":388,"o":"m 199 -12 q 79 35 121 -12 q 38 158 38 82 l 38 546 q 79 670 38 622 q 199 718 121 718 q 319 670 276 718 q 363 546 363 622 l 363 450 q 319 330 363 376 q 199 283 276 283 l 178 283 l 178 161 q 181 128 178 138 q 199 119 185 119 q 217 128 214 119 q 221 161 221 138 l 221 239 l 363 239 l 363 158 q 319 35 363 82 q 199 -12 276 -12 m 199 419 q 217 427 214 419 q 221 457 221 435 l 221 544 q 217 573 221 564 q 199 582 213 582 q 181 573 185 582 q 178 544 178 564 l 178 419 l 199 419 m 101 746 q 36 773 63 746 q 10 836 10 800 q 37 906 10 878 q 101 935 64 935 q 168 908 143 935 q 193 836 193 882 q 165 774 193 801 q 101 746 138 746 m 204 838 q 231 908 204 881 q 296 936 257 936 q 363 910 338 936 q 388 838 388 883 q 360 774 388 801 q 296 747 332 747 q 230 774 256 747 q 204 838 204 800 z "},"ė":{"ha":400,"x_min":38,"x_max":363,"o":"m 199 -12 q 79 35 121 -12 q 38 158 38 82 l 38 546 q 79 670 38 622 q 199 718 121 718 q 319 670 276 718 q 363 546 363 622 l 363 450 q 319 330 363 376 q 199 283 276 283 l 178 283 l 178 161 q 181 128 178 138 q 199 119 185 119 q 217 128 214 119 q 221 161 221 138 l 221 239 l 363 239 l 363 158 q 319 35 363 82 q 199 -12 276 -12 m 199 419 q 217 427 214 419 q 221 457 221 435 l 221 544 q 217 573 221 564 q 199 582 213 582 q 181 573 185 582 q 178 544 178 564 l 178 419 l 199 419 z "},"è":{"ha":400,"x_min":38,"x_max":363,"o":"m 199 -12 q 79 35 121 -12 q 38 158 38 82 l 38 546 q 79 670 38 622 q 199 718 121 718 q 319 670 276 718 q 363 546 363 622 l 363 450 q 319 330 363 376 q 199 283 276 283 l 178 283 l 178 161 q 181 128 178 138 q 199 119 185 119 q 217 128 214 119 q 221 161 221 138 l 221 239 l 363 239 l 363 158 q 319 35 363 82 q 199 -12 276 -12 m 199 419 q 217 427 214 419 q 221 457 221 435 l 221 544 q 217 573 221 564 q 199 582 213 582 q 181 573 185 582 q 178 544 178 564 l 178 419 l 199 419 z "},"ē":{"ha":400,"x_min":31,"x_max":389,"o":"m 199 -12 q 79 35 121 -12 q 38 158 38 82 l 38 546 q 79 670 38 622 q 199 718 121 718 q 319 670 276 718 q 363 546 363 622 l 363 450 q 319 330 363 376 q 199 283 276 283 l 178 283 l 178 161 q 181 128 178 138 q 199 119 185 119 q 217 128 214 119 q 221 161 221 138 l 221 239 l 363 239 l 363 158 q 319 35 363 82 q 199 -12 276 -12 m 199 419 q 217 427 214 419 q 221 457 221 435 l 221 544 q 217 573 221 564 q 199 582 213 582 q 181 573 185 582 q 178 544 178 564 l 178 419 l 199 419 m 31 925 l 389 925 l 389 783 l 31 783 l 31 925 z "},"ę":{"ha":400,"x_min":26,"x_max":363,"o":"m 199 419 q 217 427 214 419 q 221 457 221 435 l 221 544 q 217 573 221 564 q 199 582 213 582 q 181 573 185 582 q 178 544 178 564 l 178 419 l 199 419 m 33 -101 q 26 -58 26 -78 q 69 46 26 1 q 38 158 38 90 l 38 546 q 79 670 38 622 q 199 718 121 718 q 319 670 276 718 q 363 546 363 622 l 363 450 q 319 330 363 376 q 199 283 276 283 l 178 283 l 178 161 q 181 128 178 138 q 199 119 185 119 q 217 128 214 119 q 221 161 221 138 l 221 239 l 363 239 l 363 158 q 326 42 363 88 q 222 -11 289 -4 q 163 -57 157 -36 q 179 -67 167 -67 q 282 -31 206 -67 l 315 -147 q 175 -187 240 -187 q 85 -164 122 -187 q 33 -101 47 -140 z "},"ğ":{"ha":421,"x_min":8,"x_max":406,"o":"m 142 -182 l 192 -182 q 222 -147 222 -182 l 222 -11 q 199 -12 215 -12 q 79 35 121 -12 q 38 158 38 82 l 38 547 q 79 672 38 624 q 199 719 121 719 q 293 693 254 719 q 393 704 336 708 l 393 575 q 361 574 374 575 q 363 547 363 564 l 361 -153 q 322 -282 361 -237 q 208 -326 283 -326 l 142 -326 l 142 -182 m 178 161 q 181 129 178 139 q 199 119 185 119 q 217 129 213 119 q 221 161 221 139 l 221 544 q 217 574 221 565 q 199 582 213 582 q 181 574 185 582 q 178 544 178 565 l 178 161 z "},"ģ":{"ha":421,"x_min":38,"x_max":393,"o":"m 132 751 l 221 965 l 365 965 l 278 751 l 132 751 m 142 -182 l 192 -182 q 222 -147 222 -182 l 222 -11 q 199 -12 215 -12 q 79 35 121 -12 q 38 158 38 82 l 38 547 q 79 672 38 624 q 199 719 121 719 q 293 693 254 719 q 393 704 336 708 l 393 575 q 361 574 374 575 q 363 547 363 564 l 361 -153 q 322 -282 361 -237 q 208 -326 283 -326 l 142 -326 l 142 -182 m 178 161 q 181 129 178 139 q 199 119 185 119 q 217 129 213 119 q 221 161 221 139 l 221 544 q 217 574 221 565 q 199 582 213 582 q 181 574 185 582 q 178 544 178 565 l 178 161 z "},"ġ":{"ha":421,"x_min":38,"x_max":393,"o":"m 142 -182 l 192 -182 q 222 -147 222 -182 l 222 -11 q 199 -12 215 -12 q 79 35 121 -12 q 38 158 38 82 l 38 547 q 79 672 38 624 q 199 719 121 719 q 293 693 254 719 q 393 704 336 708 l 393 575 q 361 574 374 575 q 363 547 363 564 l 361 -153 q 322 -282 361 -237 q 208 -326 283 -326 l 142 -326 l 142 -182 m 178 161 q 181 129 178 139 q 199 119 185 119 q 217 129 213 119 q 221 161 221 139 l 221 544 q 217 574 221 565 q 199 582 213 582 q 181 574 185 582 q 178 544 178 565 l 178 161 z "},"ħ":{"ha":493,"x_min":38,"x_max":457,"o":"m 132 0 l 132 746 l 38 746 l 38 888 l 132 888 l 132 917 l 272 917 l 272 888 l 386 888 l 386 746 l 272 746 l 272 715 q 293 718 283 718 q 414 670 371 718 q 457 546 457 622 l 457 0 l 315 0 l 315 540 q 311 572 315 563 q 293 582 307 582 q 276 572 279 582 q 272 540 272 563 l 272 0 l 132 0 z "},"ı":{"ha":215,"x_min":38,"x_max":178,"o":"m 38 704 l 178 704 l 178 0 l 38 0 l 38 704 z "},"í":{"ha":307,"x_min":36,"x_max":269,"o":"m 39 704 l 179 704 l 179 0 l 39 0 l 39 704 z "},"î":{"ha":417,"x_min":38,"x_max":381,"o":"m 125 704 l 265 704 l 265 0 l 125 0 l 125 704 z "},"ï":{"ha":453,"x_min":38,"x_max":415,"o":"m 151 704 l 292 704 l 292 0 l 151 0 l 151 704 m 129 746 q 64 773 90 746 q 38 836 38 800 q 65 906 38 878 q 129 935 92 935 q 196 908 171 935 q 221 836 221 882 q 193 774 221 801 q 129 746 165 746 m 232 838 q 258 908 232 881 q 324 936 285 936 q 390 910 365 936 q 415 838 415 883 q 388 774 415 801 q 324 747 360 747 q 258 774 283 747 q 232 838 232 800 z "},"ì":{"ha":307,"x_min":38,"x_max":271,"o":"m 114 704 l 254 704 l 254 0 l 114 0 l 114 704 z "},"ī":{"ha":432,"x_min":38,"x_max":396,"o":"m 129 704 l 269 704 l 269 0 l 129 0 l 129 704 m 38 915 l 396 915 l 396 774 l 38 774 l 38 915 z "},"į":{"ha":363,"x_min":36,"x_max":325,"o":"m 325 -147 q 185 -187 250 -187 q 94 -164 132 -187 q 43 -101 57 -140 q 36 -58 36 -78 q 61 23 36 -17 q 136 89 86 63 l 136 704 l 276 704 l 276 0 l 264 0 q 190 -31 211 -18 q 172 -57 168 -44 q 189 -67 176 -67 q 292 -31 215 -67 l 325 -147 z "},"ķ":{"ha":497,"x_min":38,"x_max":460,"o":"m 38 917 l 178 917 l 178 546 l 267 704 l 415 704 l 218 343 l 460 0 l 307 0 l 178 172 l 178 0 l 38 0 l 38 917 z "},"ĺ":{"ha":311,"x_min":38,"x_max":274,"o":"m 38 917 l 178 917 l 178 0 l 38 0 l 38 917 z "},"ľ":{"ha":428,"x_min":19,"x_max":363,"o":"m 119 917 l 260 917 l 260 0 l 119 0 l 119 917 z "},"ļ":{"ha":311,"x_min":36,"x_max":269,"o":"m 129 917 l 269 917 l 269 0 l 129 0 l 129 917 z "},"ł":{"ha":472,"x_min":38,"x_max":435,"o":"m 160 417 l 103 390 l 38 531 l 160 586 l 160 917 l 300 917 l 300 651 l 371 683 l 435 544 l 300 482 l 300 0 l 160 0 l 160 417 z "},"ń":{"ha":400,"x_min":38,"x_max":365,"o":"m 38 546 q 79 670 38 622 q 199 718 121 718 q 319 670 276 718 q 363 546 363 622 l 363 0 l 221 0 l 221 539 q 217 572 221 563 q 199 582 213 582 q 181 572 185 582 q 178 539 178 563 l 178 0 l 38 0 l 38 546 z "},"ň":{"ha":400,"x_min":32,"x_max":375,"o":"m 38 546 q 79 670 38 622 q 199 718 121 718 q 319 670 276 718 q 363 546 363 622 l 363 0 l 221 0 l 221 539 q 217 572 221 563 q 199 582 213 582 q 181 572 185 582 q 178 539 178 563 l 178 0 l 38 0 l 38 546 z "},"ņ":{"ha":400,"x_min":38,"x_max":363,"o":"m 38 546 q 79 670 38 622 q 199 718 121 718 q 319 670 276 718 q 363 546 363 622 l 363 0 l 221 0 l 221 539 q 217 572 221 563 q 199 582 213 582 q 181 572 185 582 q 178 539 178 563 l 178 0 l 38 0 l 38 546 z "},"ñ":{"ha":400,"x_min":-7,"x_max":406,"o":"m 38 546 q 79 670 38 622 q 199 718 121 718 q 319 670 276 718 q 363 546 363 622 l 363 0 l 221 0 l 221 539 q 217 572 221 563 q 199 582 213 582 q 181 572 185 582 q 178 539 178 563 l 178 0 l 38 0 l 38 546 m -7 749 q 38 859 -4 813 q 136 906 79 906 q 175 900 158 906 l 226 883 q 247 879 238 879 q 285 915 271 879 l 406 886 q 353 785 393 825 q 265 746 313 746 q 229 753 250 746 l 186 768 q 156 776 168 776 q 134 767 143 776 q 117 736 125 758 l -7 749 z "},"ŋ":{"ha":400,"x_min":38,"x_max":363,"o":"m 104 -47 q 128 -49 113 -49 q 221 28 221 -49 l 221 556 q 217 585 221 578 q 199 593 214 593 q 181 585 185 593 q 178 556 178 578 l 178 0 l 38 0 l 38 557 q 79 681 38 633 q 199 729 121 729 q 319 681 276 729 q 363 557 363 633 l 363 25 q 331 -85 363 -33 q 247 -167 300 -136 q 132 -197 194 -197 q 104 -196 114 -197 l 104 -47 z "},"ó":{"ha":400,"x_min":38,"x_max":363,"o":"m 199 -14 q 79 33 121 -14 q 38 157 38 81 l 38 546 q 79 670 38 622 q 199 718 121 718 q 319 670 276 718 q 363 546 363 622 l 363 157 q 319 34 363 82 q 199 -14 276 -14 m 178 164 q 181 129 178 139 q 199 119 185 119 q 217 129 213 119 q 221 164 221 139 l 221 540 q 217 572 221 563 q 199 582 213 582 q 181 572 185 582 q 178 540 178 563 l 178 164 z "},"ô":{"ha":400,"x_min":25,"x_max":368,"o":"m 199 -14 q 79 33 121 -14 q 38 157 38 81 l 38 546 q 79 670 38 622 q 199 718 121 718 q 319 670 276 718 q 363 546 363 622 l 363 157 q 319 34 363 82 q 199 -14 276 -14 m 178 164 q 181 129 178 139 q 199 119 185 119 q 217 129 213 119 q 221 164 221 139 l 221 540 q 217 572 221 563 q 199 582 213 582 q 181 572 185 582 q 178 540 178 563 l 178 164 z "},"ö":{"ha":400,"x_min":10,"x_max":388,"o":"m 199 -14 q 79 33 121 -14 q 38 157 38 81 l 38 546 q 79 670 38 622 q 199 718 121 718 q 319 670 276 718 q 363 546 363 622 l 363 157 q 319 34 363 82 q 199 -14 276 -14 m 178 164 q 181 129 178 139 q 199 119 185 119 q 217 129 213 119 q 221 164 221 139 l 221 540 q 217 572 221 563 q 199 582 213 582 q 181 572 185 582 q 178 540 178 563 l 178 164 m 101 753 q 36 780 63 753 q 10 843 10 807 q 37 913 10 885 q 101 942 64 942 q 168 915 143 942 q 193 843 193 889 q 165 781 193 808 q 101 753 138 753 m 204 844 q 231 915 204 888 q 296 943 257 943 q 363 917 338 943 q 388 844 388 890 q 360 781 388 808 q 296 754 332 754 q 230 781 256 754 q 204 844 204 807 z "},"ò":{"ha":400,"x_min":38,"x_max":363,"o":"m 199 -14 q 79 33 121 -14 q 38 157 38 81 l 38 546 q 79 670 38 622 q 199 718 121 718 q 319 670 276 718 q 363 546 363 622 l 363 157 q 319 34 363 82 q 199 -14 276 -14 m 178 164 q 181 129 178 139 q 199 119 185 119 q 217 129 213 119 q 221 164 221 139 l 221 540 q 217 572 221 563 q 199 582 213 582 q 181 572 185 582 q 178 540 178 563 l 178 164 z "},"ő":{"ha":492,"x_min":44,"x_max":431,"o":"m 206 -14 q 86 33 128 -14 q 44 157 44 81 l 44 546 q 86 670 44 622 q 206 718 128 718 q 326 670 283 718 q 369 546 369 622 l 369 157 q 326 34 369 82 q 206 -14 283 -14 m 185 164 q 188 129 185 139 q 206 119 192 119 q 224 129 219 119 q 228 164 228 139 l 228 540 q 224 572 228 563 q 206 582 219 582 q 188 572 192 582 q 185 540 185 563 l 185 164 z "},"ō":{"ha":400,"x_min":31,"x_max":389,"o":"m 199 -14 q 79 33 121 -14 q 38 157 38 81 l 38 546 q 79 670 38 622 q 199 718 121 718 q 319 670 276 718 q 363 546 363 622 l 363 157 q 319 34 363 82 q 199 -14 276 -14 m 178 164 q 181 129 178 139 q 199 119 185 119 q 217 129 213 119 q 221 164 221 139 l 221 540 q 217 572 221 563 q 199 582 213 582 q 181 572 185 582 q 178 540 178 563 l 178 164 m 31 932 l 389 932 l 389 790 l 31 790 l 31 932 z "},"ø":{"ha":660,"x_min":38,"x_max":622,"o":"m 325 -14 q 279 -8 297 -14 l 199 -226 l 38 -226 l 167 121 q 164 157 164 143 l 164 546 q 206 670 164 622 q 325 718 247 718 q 386 708 361 718 l 463 914 l 622 914 l 489 554 l 489 546 l 489 157 q 446 34 489 82 q 325 -14 403 -14 m 338 579 q 325 582 332 582 q 308 572 311 582 q 304 540 304 563 l 304 489 l 338 579 m 328 119 q 344 131 340 121 q 347 164 347 140 l 347 174 l 328 119 z "},"õ":{"ha":400,"x_min":-32,"x_max":421,"o":"m 199 -14 q 79 33 121 -14 q 38 157 38 81 l 38 546 q 79 670 38 622 q 199 718 121 718 q 319 670 276 718 q 363 546 363 622 l 363 157 q 319 34 363 82 q 199 -14 276 -14 m 178 164 q 181 129 178 139 q 199 119 185 119 q 217 129 213 119 q 221 164 221 139 l 221 540 q 217 572 221 563 q 199 582 213 582 q 181 572 185 582 q 178 540 178 563 l 178 164 z "},"œ":{"ha":599,"x_min":38,"x_max":561,"o":"m 199 -14 q 79 33 121 -14 q 38 157 38 81 l 38 546 q 79 670 38 622 q 199 718 121 718 q 293 692 254 718 q 397 725 335 725 q 518 677 475 725 q 561 553 561 629 l 561 457 q 518 337 561 383 q 397 290 475 290 l 376 290 l 376 168 q 380 135 376 144 q 397 126 383 126 q 416 135 413 126 q 419 168 419 144 l 419 246 l 561 246 l 561 165 q 518 42 561 89 q 397 -6 475 -6 q 304 19 340 -6 q 199 -14 263 -14 m 178 164 q 181 129 178 139 q 199 119 185 119 q 217 129 213 119 q 221 164 221 139 l 221 540 q 217 572 221 563 q 199 582 213 582 q 181 572 185 582 q 178 540 178 563 l 178 164 m 397 426 q 416 434 413 426 q 419 464 419 442 l 419 551 q 415 580 419 571 q 397 589 411 589 q 380 580 383 589 q 376 551 376 571 l 376 426 l 397 426 z "},"þ":{"ha":400,"x_min":38,"x_max":363,"o":"m 38 917 l 178 917 l 178 825 q 199 828 189 828 q 319 780 276 828 q 363 654 363 732 l 363 257 q 319 133 363 181 q 199 85 276 85 q 178 88 189 85 l 178 0 l 38 0 l 38 917 m 178 264 q 181 228 178 239 q 199 218 185 218 q 217 228 213 218 q 221 264 221 239 l 221 650 q 217 682 221 672 q 199 692 213 692 q 181 682 185 692 q 178 650 178 672 l 178 264 z "},"ŕ":{"ha":400,"x_min":38,"x_max":363,"o":"m 114 751 l 203 965 l 347 965 l 260 751 l 114 751 m 38 546 q 81 670 38 622 q 200 718 124 718 q 320 670 278 718 q 363 546 363 622 l 363 425 l 222 425 l 222 538 q 218 571 222 560 q 200 582 214 582 q 182 571 186 582 q 178 538 178 560 l 176 0 l 38 0 l 38 546 z "},"ř":{"ha":400,"x_min":4,"x_max":363,"o":"m 38 546 q 81 670 38 622 q 200 718 124 718 q 320 670 278 718 q 363 546 363 622 l 363 425 l 222 425 l 222 538 q 218 571 222 560 q 200 582 214 582 q 182 571 186 582 q 178 538 178 560 l 176 0 l 38 0 l 38 546 z "},"ŗ":{"ha":400,"x_min":38,"x_max":363,"o":"m 38 546 q 81 670 38 622 q 200 718 124 718 q 320 670 278 718 q 363 546 363 622 l 363 425 l 222 425 l 222 538 q 218 571 222 560 q 200 582 214 582 q 182 571 186 582 q 178 538 178 560 l 176 0 l 38 0 l 38 546 z "},"ś":{"ha":401,"x_min":38,"x_max":364,"o":"m 199 -14 q 79 34 121 -14 q 38 158 38 82 l 38 261 l 178 261 l 178 165 q 181 132 178 142 q 199 122 185 122 q 217 132 213 122 q 221 165 221 142 l 221 258 q 217 285 221 278 q 193 297 213 292 q 39 482 39 335 l 39 546 q 81 670 39 622 q 200 718 122 718 q 321 670 278 718 q 364 546 364 622 l 364 471 l 222 471 l 222 540 q 218 572 222 563 q 200 582 214 582 q 182 572 186 582 q 178 540 178 563 l 178 481 q 186 449 178 458 q 217 431 194 439 q 328 367 293 401 q 363 265 363 333 l 363 158 q 319 34 363 82 q 199 -14 276 -14 z "},"š":{"ha":401,"x_min":28,"x_max":371,"o":"m 199 -14 q 79 34 121 -14 q 38 158 38 82 l 38 261 l 178 261 l 178 165 q 181 132 178 142 q 199 122 185 122 q 217 132 213 122 q 221 165 221 142 l 221 258 q 217 285 221 278 q 193 297 213 292 q 39 482 39 335 l 39 546 q 81 670 39 622 q 200 718 122 718 q 321 670 278 718 q 364 546 364 622 l 364 471 l 222 471 l 222 540 q 218 572 222 563 q 200 582 214 582 q 182 572 186 582 q 178 540 178 563 l 178 481 q 186 449 178 458 q 217 431 194 439 q 328 367 293 401 q 363 265 363 333 l 363 158 q 319 34 363 82 q 199 -14 276 -14 z "},"ş":{"ha":401,"x_min":38,"x_max":364,"o":"m 146 -168 q 187 -165 176 -168 q 201 -150 197 -161 q 179 -116 211 -132 q 75 -83 147 -100 l 124 1 q 60 62 82 21 q 38 158 38 103 l 38 261 l 178 261 l 178 165 q 181 132 178 142 q 199 122 185 122 q 217 132 213 122 q 221 165 221 142 l 221 258 q 217 285 221 278 q 193 297 213 292 q 39 482 39 335 l 39 546 q 81 670 39 622 q 200 718 122 718 q 321 670 278 718 q 364 546 364 622 l 364 471 l 222 471 l 222 540 q 218 572 222 563 q 200 582 214 582 q 182 572 186 582 q 178 540 178 563 l 178 481 q 186 449 178 458 q 217 431 194 439 q 328 367 293 401 q 363 265 363 333 l 363 158 q 338 60 363 103 q 269 0 314 18 l 258 -24 q 327 -76 304 -44 q 350 -143 350 -107 q 343 -185 350 -161 q 265 -269 325 -243 q 125 -296 206 -296 q 39 -289 85 -296 l 39 -165 l 146 -168 z "},"ș":{"ha":401,"x_min":38,"x_max":364,"o":"m 199 -14 q 79 34 121 -14 q 38 158 38 82 l 38 261 l 178 261 l 178 165 q 181 132 178 142 q 199 122 185 122 q 217 132 213 122 q 221 165 221 142 l 221 258 q 217 285 221 278 q 193 297 213 292 q 39 482 39 335 l 39 546 q 81 670 39 622 q 200 718 122 718 q 321 670 278 718 q 364 546 364 622 l 364 471 l 222 471 l 222 540 q 218 572 222 563 q 200 582 214 582 q 182 572 186 582 q 178 540 178 563 l 178 481 q 186 449 178 458 q 217 431 194 439 q 328 367 293 401 q 363 265 363 333 l 363 158 q 319 34 363 82 q 199 -14 276 -14 z "},"ß":{"ha":397,"x_min":38,"x_max":360,"o":"m 38 768 q 83 871 38 826 q 192 915 129 915 q 303 872 257 915 q 349 768 349 829 l 349 557 q 342 517 349 532 q 315 490 335 503 q 360 397 360 461 l 360 160 q 321 45 360 85 q 196 0 282 6 l 197 128 q 215 137 210 129 q 219 161 219 144 l 219 385 q 215 402 219 397 q 199 408 210 407 l 199 536 q 215 558 215 538 l 215 775 q 194 801 215 801 q 174 775 174 801 l 171 0 l 38 0 l 38 768 z "},"ŧ":{"ha":386,"x_min":38,"x_max":350,"o":"m 101 389 l 38 389 l 38 531 l 101 531 l 101 917 l 240 917 l 242 704 l 336 704 l 336 575 l 242 575 l 242 531 l 350 531 l 350 389 l 242 389 l 242 0 l 101 0 l 101 389 z "},"ť":{"ha":310,"x_min":-43,"x_max":300,"o":"m 38 917 l 176 917 l 178 704 l 272 704 l 272 575 l 178 575 l 178 0 l 38 0 l 38 917 z "},"ţ":{"ha":310,"x_min":-87,"x_max":272,"o":"m 19 -181 q 60 -177 50 -181 q 75 -162 71 -174 q 53 -128 85 -144 q -51 -96 21 -112 l 38 57 l 38 917 l 176 917 l 178 704 l 272 704 l 272 575 l 178 575 l 178 57 l 179 57 l 178 54 l 178 0 l 150 0 l 132 -36 q 201 -88 178 -57 q 224 -156 224 -119 q 217 -197 224 -174 q 139 -282 199 -256 q -1 -308 79 -308 q -87 -301 -42 -308 l -87 -178 l 19 -181 z "},"ț":{"ha":358,"x_min":33,"x_max":321,"o":"m 86 917 l 225 917 l 226 704 l 321 704 l 321 575 l 226 575 l 226 0 l 86 0 l 86 917 z "},"ú":{"ha":400,"x_min":38,"x_max":363,"o":"m 199 -14 q 79 34 121 -14 q 38 158 38 82 l 38 704 l 178 704 l 178 167 q 181 133 178 143 q 199 122 185 122 q 217 133 213 122 q 221 167 221 143 l 221 704 l 363 704 l 363 158 q 319 34 363 82 q 199 -14 276 -14 z "},"û":{"ha":400,"x_min":25,"x_max":368,"o":"m 199 -14 q 79 34 121 -14 q 38 158 38 82 l 38 704 l 178 704 l 178 167 q 181 133 178 143 q 199 122 185 122 q 217 133 213 122 q 221 167 221 143 l 221 704 l 363 704 l 363 158 q 319 34 363 82 q 199 -14 276 -14 z "},"ü":{"ha":400,"x_min":10,"x_max":388,"o":"m 199 -14 q 79 34 121 -14 q 38 158 38 82 l 38 704 l 178 704 l 178 167 q 181 133 178 143 q 199 122 185 122 q 217 133 213 122 q 221 167 221 143 l 221 704 l 363 704 l 363 158 q 319 34 363 82 q 199 -14 276 -14 m 101 738 q 36 765 63 738 q 10 828 10 792 q 37 898 10 869 q 101 926 64 926 q 168 900 143 926 q 193 828 193 874 q 165 765 193 793 q 101 738 138 738 m 204 829 q 231 900 204 872 q 296 928 257 928 q 363 901 338 928 q 388 829 388 875 q 360 766 388 793 q 296 739 332 739 q 230 765 256 739 q 204 829 204 792 z "},"ù":{"ha":400,"x_min":38,"x_max":363,"o":"m 199 -14 q 79 34 121 -14 q 38 158 38 82 l 38 704 l 178 704 l 178 167 q 181 133 178 143 q 199 122 185 122 q 217 133 213 122 q 221 167 221 143 l 221 704 l 363 704 l 363 158 q 319 34 363 82 q 199 -14 276 -14 z "},"ű":{"ha":492,"x_min":44,"x_max":431,"o":"m 206 -14 q 86 34 128 -14 q 44 158 44 82 l 44 704 l 185 704 l 185 167 q 188 133 185 143 q 206 122 192 122 q 224 133 219 122 q 228 167 228 143 l 228 704 l 369 704 l 369 158 q 326 34 369 82 q 206 -14 283 -14 z "},"ū":{"ha":400,"x_min":31,"x_max":389,"o":"m 199 -14 q 79 34 121 -14 q 38 158 38 82 l 38 704 l 178 704 l 178 167 q 181 133 178 143 q 199 122 185 122 q 217 133 213 122 q 221 167 221 143 l 221 704 l 363 704 l 363 158 q 319 34 363 82 q 199 -14 276 -14 m 31 917 l 389 917 l 389 775 l 31 775 l 31 917 z "},"ų":{"ha":400,"x_min":38,"x_max":363,"o":"m 326 -149 q 186 -189 251 -189 q 96 -165 133 -189 q 44 -103 58 -142 q 38 -61 38 -82 q 75 38 38 -6 q 38 158 38 83 l 38 704 l 178 704 l 178 167 q 181 133 178 143 q 199 122 185 122 q 217 133 213 122 q 221 167 221 143 l 221 704 l 363 704 l 363 158 q 340 64 363 104 q 276 3 318 24 q 242 -10 263 -6 q 186 -35 201 -24 q 174 -58 171 -47 q 190 -68 178 -68 q 293 -32 217 -68 l 326 -149 z "},"ů":{"ha":400,"x_min":38,"x_max":363,"o":"m 199 -14 q 79 34 121 -14 q 38 158 38 82 l 38 704 l 178 704 l 178 167 q 181 133 178 143 q 199 122 185 122 q 217 133 213 122 q 221 167 221 143 l 221 704 l 363 704 l 363 158 q 319 34 363 82 q 199 -14 276 -14 z "},"ẃ":{"ha":592,"x_min":38,"x_max":554,"o":"m 38 704 l 179 704 l 201 308 l 226 704 l 368 704 l 394 308 l 413 704 l 554 704 l 463 0 l 319 0 l 299 315 l 278 0 l 135 0 l 38 704 z "},"ŵ":{"ha":592,"x_min":38,"x_max":554,"o":"m 38 704 l 179 704 l 201 308 l 226 704 l 368 704 l 394 308 l 413 704 l 554 704 l 463 0 l 319 0 l 299 315 l 278 0 l 135 0 l 38 704 z "},"ẅ":{"ha":592,"x_min":38,"x_max":554,"o":"m 38 704 l 179 704 l 201 308 l 226 704 l 368 704 l 394 308 l 413 704 l 554 704 l 463 0 l 319 0 l 299 315 l 278 0 l 135 0 l 38 704 m 201 746 q 136 773 163 746 q 110 836 110 800 q 137 906 110 878 q 201 935 164 935 q 268 908 243 935 q 293 836 293 882 q 265 774 293 801 q 201 746 238 746 m 304 838 q 331 908 304 881 q 396 936 357 936 q 463 910 438 936 q 488 838 488 883 q 460 774 488 801 q 396 747 432 747 q 330 774 356 747 q 304 838 304 800 z "},"ẁ":{"ha":592,"x_min":38,"x_max":554,"o":"m 38 704 l 179 704 l 201 308 l 226 704 l 368 704 l 394 308 l 413 704 l 554 704 l 463 0 l 319 0 l 299 315 l 278 0 l 135 0 l 38 704 z "},"ý":{"ha":407,"x_min":38,"x_max":369,"o":"m 138 25 l 38 704 l 179 704 l 206 292 l 228 704 l 369 704 l 279 22 l 238 -326 l 96 -326 l 138 25 z "},"ŷ":{"ha":407,"x_min":29,"x_max":372,"o":"m 138 25 l 38 704 l 179 704 l 206 292 l 228 704 l 369 704 l 279 22 l 238 -326 l 96 -326 l 138 25 z "},"ÿ":{"ha":407,"x_min":14,"x_max":392,"o":"m 138 25 l 38 704 l 179 704 l 206 292 l 228 704 l 369 704 l 279 22 l 238 -326 l 96 -326 l 138 25 m 106 721 q 40 748 67 721 q 14 811 14 775 q 41 881 14 853 q 106 910 68 910 q 172 883 147 910 q 197 811 197 857 q 169 749 197 776 q 106 721 142 721 m 208 813 q 235 883 208 856 q 300 911 261 911 q 367 885 342 911 q 392 813 392 858 q 364 749 392 776 q 300 722 336 722 q 234 749 260 722 q 208 813 208 775 z "},"ỳ":{"ha":407,"x_min":38,"x_max":369,"o":"m 138 25 l 38 704 l 179 704 l 206 292 l 228 704 l 369 704 l 279 22 l 238 -326 l 96 -326 l 138 25 z "},"ź":{"ha":369,"x_min":38,"x_max":346,"o":"m 38 110 l 186 572 l 38 572 l 38 704 l 332 704 l 332 593 l 185 132 l 332 132 l 332 0 l 38 0 l 38 110 z "},"ž":{"ha":369,"x_min":13,"x_max":356,"o":"m 38 110 l 186 572 l 38 572 l 38 704 l 332 704 l 332 593 l 185 132 l 332 132 l 332 0 l 38 0 l 38 110 z "},"ż":{"ha":369,"x_min":38,"x_max":332,"o":"m 38 110 l 186 572 l 38 572 l 38 704 l 332 704 l 332 593 l 185 132 l 332 132 l 332 0 l 38 0 l 38 110 z "},"μ":{"ha":447,"x_min":38,"x_max":410,"o":"m 38 704 l 178 704 l 178 169 q 181 134 178 146 q 199 122 185 122 q 217 134 213 122 q 221 169 221 146 l 221 704 l 363 704 l 363 160 q 367 124 363 135 q 380 110 371 114 q 410 104 389 107 l 410 -19 q 385 -21 401 -21 q 286 8 326 -21 q 204 -12 251 -12 q 178 -11 183 -12 l 178 -103 l 38 -103 l 38 704 z "},"̈":{"ha":0,"x_min":38,"x_max":415,"o":"m 129 724 q 64 751 90 724 q 38 814 38 778 q 65 884 38 856 q 129 913 92 913 q 196 886 171 913 q 221 814 221 860 q 193 751 221 779 q 129 724 165 724 m 232 815 q 258 886 232 858 q 324 914 285 914 q 390 888 365 914 q 415 815 415 861 q 388 752 415 779 q 324 725 360 725 q 258 751 283 725 q 232 815 232 778 z "},"̇":{"ha":0,"x_min":38,"x_max":221,"o":"m 129 733 q 64 760 90 733 q 38 825 38 788 q 65 888 38 860 q 129 917 92 917 q 194 890 168 917 q 221 825 221 863 q 193 761 221 789 q 129 733 165 733 z "},"̀":{"ha":0,"x_min":38,"x_max":271,"o":"m 38 904 l 182 904 l 271 690 l 125 690 l 38 904 z "},"́":{"ha":0,"x_min":36,"x_max":269,"o":"m 36 692 l 125 906 l 269 906 l 182 692 l 36 692 z "},"̋":{"ha":0,"x_min":74,"x_max":418,"o":"m 176 910 l 418 910 l 319 689 l 74 689 l 176 910 z "},"̂":{"ha":0,"x_min":38,"x_max":381,"o":"m 211 956 l 381 665 l 229 668 l 210 706 l 188 667 l 38 667 l 211 956 z "},"̌":{"ha":0,"x_min":38,"x_max":381,"o":"m 188 917 l 210 878 l 229 915 l 381 918 l 211 628 l 38 917 l 188 917 z "},"̆":{"ha":0,"x_min":38,"x_max":435,"o":"m 235 726 q 103 783 157 726 q 38 935 49 839 l 174 935 q 199 878 183 893 q 235 863 214 863 q 269 878 256 863 q 294 935 283 893 l 435 935 q 361 781 411 836 q 235 726 311 726 z "},"̊":{"ha":0,"x_min":38,"x_max":296,"o":"m 167 638 q 72 681 106 638 q 38 776 38 724 q 72 872 38 829 q 168 915 106 915 q 262 872 228 915 q 296 776 296 829 q 261 681 296 724 q 167 638 226 638 m 136 775 q 144 755 136 765 q 167 744 153 744 q 188 755 181 744 q 196 775 196 765 q 188 798 196 788 q 167 808 181 808 q 144 798 153 808 q 136 775 136 788 z "},"̃":{"ha":0,"x_min":47,"x_max":500,"o":"m 47 674 q 96 795 50 744 q 204 846 142 846 q 247 839 224 846 l 304 821 q 325 817 315 817 q 368 856 354 817 l 500 824 q 442 715 486 758 q 347 672 399 672 q 307 679 322 672 l 260 696 q 226 704 235 704 q 183 661 199 704 l 47 674 z "},"̄":{"ha":0,"x_min":38,"x_max":396,"o":"m 38 961 l 396 961 l 396 819 l 38 819 l 38 961 z "},"̒":{"ha":0,"x_min":51,"x_max":276,"o":"m 132 915 l 276 915 l 196 703 l 51 703 l 132 915 z "},"̦":{"ha":0,"x_min":88,"x_max":321,"o":"m 88 -335 l 176 -121 l 321 -121 l 233 -335 l 88 -335 z "},"̧":{"ha":0,"x_min":38,"x_max":349,"o":"m 144 -50 q 185 -47 175 -50 q 200 -32 196 -43 q 178 2 210 -14 q 74 35 146 18 l 163 188 l 304 188 l 257 94 q 326 42 303 74 q 349 -25 349 11 q 342 -67 349 -43 q 264 -151 324 -125 q 124 -178 204 -178 q 38 -171 83 -178 l 38 -47 l 144 -50 z "},"̨":{"ha":0,"x_min":36,"x_max":325,"o":"m 325 -93 q 185 -133 250 -133 q 94 -110 132 -133 q 43 -47 57 -86 q 36 -6 36 -26 q 81 101 36 51 q 214 171 125 150 l 246 157 l 276 58 q 192 25 215 39 q 172 -3 168 11 q 189 -12 176 -12 q 292 24 215 -12 l 325 -93 z "},"˜":{"ha":517,"x_min":47,"x_max":500,"o":"m 47 674 q 96 795 50 744 q 204 846 142 846 q 247 839 224 846 l 304 821 q 325 817 315 817 q 368 856 354 817 l 500 824 q 442 715 486 758 q 347 672 399 672 q 307 679 322 672 l 260 696 q 226 704 235 704 q 183 661 199 704 l 47 674 z "}}}
